%TF.GenerationSoftware,KiCad,Pcbnew,(5.1.6)-1*%
%TF.CreationDate,2021-03-31T13:13:51-04:00*%
%TF.ProjectId,Freespeed-Clone,46726565-7370-4656-9564-2d436c6f6e65,rev?*%
%TF.SameCoordinates,Original*%
%TF.FileFunction,Legend,Bot*%
%TF.FilePolarity,Positive*%
%FSLAX46Y46*%
G04 Gerber Fmt 4.6, Leading zero omitted, Abs format (unit mm)*
G04 Created by KiCad (PCBNEW (5.1.6)-1) date 2021-03-31 13:13:51*
%MOMM*%
%LPD*%
G01*
G04 APERTURE LIST*
%ADD10C,0.150000*%
%ADD11C,0.120000*%
%ADD12C,0.100000*%
G04 APERTURE END LIST*
D10*
X129841047Y-87336380D02*
X129841047Y-88050666D01*
X129888666Y-88193523D01*
X129983904Y-88288761D01*
X130126761Y-88336380D01*
X130222000Y-88336380D01*
X128888666Y-88336380D02*
X129364857Y-88336380D01*
X129364857Y-87336380D01*
X127983904Y-88241142D02*
X128031523Y-88288761D01*
X128174380Y-88336380D01*
X128269619Y-88336380D01*
X128412476Y-88288761D01*
X128507714Y-88193523D01*
X128555333Y-88098285D01*
X128602952Y-87907809D01*
X128602952Y-87764952D01*
X128555333Y-87574476D01*
X128507714Y-87479238D01*
X128412476Y-87384000D01*
X128269619Y-87336380D01*
X128174380Y-87336380D01*
X128031523Y-87384000D01*
X127983904Y-87431619D01*
X127269619Y-87336380D02*
X127269619Y-88050666D01*
X127317238Y-88193523D01*
X127412476Y-88288761D01*
X127555333Y-88336380D01*
X127650571Y-88336380D01*
X126317238Y-88336380D02*
X126793428Y-88336380D01*
X126793428Y-87336380D01*
X125412476Y-88241142D02*
X125460095Y-88288761D01*
X125602952Y-88336380D01*
X125698190Y-88336380D01*
X125841047Y-88288761D01*
X125936285Y-88193523D01*
X125983904Y-88098285D01*
X126031523Y-87907809D01*
X126031523Y-87764952D01*
X125983904Y-87574476D01*
X125936285Y-87479238D01*
X125841047Y-87384000D01*
X125698190Y-87336380D01*
X125602952Y-87336380D01*
X125460095Y-87384000D01*
X125412476Y-87431619D01*
X124698190Y-87336380D02*
X124698190Y-88050666D01*
X124745809Y-88193523D01*
X124841047Y-88288761D01*
X124983904Y-88336380D01*
X125079142Y-88336380D01*
X123745809Y-88336380D02*
X124222000Y-88336380D01*
X124222000Y-87336380D01*
X122841047Y-88241142D02*
X122888666Y-88288761D01*
X123031523Y-88336380D01*
X123126761Y-88336380D01*
X123269619Y-88288761D01*
X123364857Y-88193523D01*
X123412476Y-88098285D01*
X123460095Y-87907809D01*
X123460095Y-87764952D01*
X123412476Y-87574476D01*
X123364857Y-87479238D01*
X123269619Y-87384000D01*
X123126761Y-87336380D01*
X123031523Y-87336380D01*
X122888666Y-87384000D01*
X122841047Y-87431619D01*
X122126761Y-87336380D02*
X122126761Y-88050666D01*
X122174380Y-88193523D01*
X122269619Y-88288761D01*
X122412476Y-88336380D01*
X122507714Y-88336380D01*
X121174380Y-88336380D02*
X121650571Y-88336380D01*
X121650571Y-87336380D01*
X120269619Y-88241142D02*
X120317238Y-88288761D01*
X120460095Y-88336380D01*
X120555333Y-88336380D01*
X120698190Y-88288761D01*
X120793428Y-88193523D01*
X120841047Y-88098285D01*
X120888666Y-87907809D01*
X120888666Y-87764952D01*
X120841047Y-87574476D01*
X120793428Y-87479238D01*
X120698190Y-87384000D01*
X120555333Y-87336380D01*
X120460095Y-87336380D01*
X120317238Y-87384000D01*
X120269619Y-87431619D01*
X132776857Y-43628571D02*
X132419714Y-45128571D01*
X132134000Y-44057142D01*
X131848285Y-45128571D01*
X131491142Y-43628571D01*
X131062571Y-43628571D02*
X130705428Y-45128571D01*
X130419714Y-44057142D01*
X130134000Y-45128571D01*
X129776857Y-43628571D01*
X129348285Y-43628571D02*
X128991142Y-45128571D01*
X128705428Y-44057142D01*
X128419714Y-45128571D01*
X128062571Y-43628571D01*
X127491142Y-44985714D02*
X127419714Y-45057142D01*
X127491142Y-45128571D01*
X127562571Y-45057142D01*
X127491142Y-44985714D01*
X127491142Y-45128571D01*
X126776857Y-45128571D02*
X126776857Y-43628571D01*
X125919714Y-45128571D01*
X125919714Y-43628571D01*
X125205428Y-45128571D02*
X125205428Y-43628571D01*
X124491142Y-45128571D02*
X124491142Y-43628571D01*
X123634000Y-45128571D01*
X123634000Y-43628571D01*
X122491142Y-43628571D02*
X122491142Y-44700000D01*
X122562571Y-44914285D01*
X122705428Y-45057142D01*
X122919714Y-45128571D01*
X123062571Y-45128571D01*
X121848285Y-44700000D02*
X121134000Y-44700000D01*
X121991142Y-45128571D02*
X121491142Y-43628571D01*
X120991142Y-45128571D01*
X120491142Y-45128571D02*
X120491142Y-43628571D01*
X119991142Y-44700000D01*
X119491142Y-43628571D01*
X119491142Y-45128571D01*
X118776857Y-45128571D02*
X118776857Y-43628571D01*
X117205428Y-44985714D02*
X117276857Y-45057142D01*
X117491142Y-45128571D01*
X117634000Y-45128571D01*
X117848285Y-45057142D01*
X117991142Y-44914285D01*
X118062571Y-44771428D01*
X118134000Y-44485714D01*
X118134000Y-44271428D01*
X118062571Y-43985714D01*
X117991142Y-43842857D01*
X117848285Y-43700000D01*
X117634000Y-43628571D01*
X117491142Y-43628571D01*
X117276857Y-43700000D01*
X117205428Y-43771428D01*
X115705428Y-45128571D02*
X116205428Y-44414285D01*
X116562571Y-45128571D02*
X116562571Y-43628571D01*
X115991142Y-43628571D01*
X115848285Y-43700000D01*
X115776857Y-43771428D01*
X115705428Y-43914285D01*
X115705428Y-44128571D01*
X115776857Y-44271428D01*
X115848285Y-44342857D01*
X115991142Y-44414285D01*
X116562571Y-44414285D01*
X114776857Y-43628571D02*
X114491142Y-43628571D01*
X114348285Y-43700000D01*
X114205428Y-43842857D01*
X114134000Y-44128571D01*
X114134000Y-44628571D01*
X114205428Y-44914285D01*
X114348285Y-45057142D01*
X114491142Y-45128571D01*
X114776857Y-45128571D01*
X114919714Y-45057142D01*
X115062571Y-44914285D01*
X115134000Y-44628571D01*
X115134000Y-44128571D01*
X115062571Y-43842857D01*
X114919714Y-43700000D01*
X114776857Y-43628571D01*
X113491142Y-44985714D02*
X113419714Y-45057142D01*
X113491142Y-45128571D01*
X113562571Y-45057142D01*
X113491142Y-44985714D01*
X113491142Y-45128571D01*
X111919714Y-44985714D02*
X111991142Y-45057142D01*
X112205428Y-45128571D01*
X112348285Y-45128571D01*
X112562571Y-45057142D01*
X112705428Y-44914285D01*
X112776857Y-44771428D01*
X112848285Y-44485714D01*
X112848285Y-44271428D01*
X112776857Y-43985714D01*
X112705428Y-43842857D01*
X112562571Y-43700000D01*
X112348285Y-43628571D01*
X112205428Y-43628571D01*
X111991142Y-43700000D01*
X111919714Y-43771428D01*
X110991142Y-43628571D02*
X110705428Y-43628571D01*
X110562571Y-43700000D01*
X110419714Y-43842857D01*
X110348285Y-44128571D01*
X110348285Y-44628571D01*
X110419714Y-44914285D01*
X110562571Y-45057142D01*
X110705428Y-45128571D01*
X110991142Y-45128571D01*
X111134000Y-45057142D01*
X111276857Y-44914285D01*
X111348285Y-44628571D01*
X111348285Y-44128571D01*
X111276857Y-43842857D01*
X111134000Y-43700000D01*
X110991142Y-43628571D01*
X109705428Y-44985714D02*
X109634000Y-45057142D01*
X109705428Y-45128571D01*
X109776857Y-45057142D01*
X109705428Y-44985714D01*
X109705428Y-45128571D01*
X108991142Y-43628571D02*
X108991142Y-44842857D01*
X108919714Y-44985714D01*
X108848285Y-45057142D01*
X108705428Y-45128571D01*
X108419714Y-45128571D01*
X108276857Y-45057142D01*
X108205428Y-44985714D01*
X108134000Y-44842857D01*
X108134000Y-43628571D01*
X107419714Y-45128571D02*
X107419714Y-43628571D01*
X106562571Y-45128571D02*
X107205428Y-44271428D01*
X106562571Y-43628571D02*
X107419714Y-44485714D01*
X152955714Y-79390476D02*
X152860476Y-79485714D01*
X152765238Y-79771428D01*
X152765238Y-79961904D01*
X152860476Y-80247619D01*
X153050952Y-80438095D01*
X153241428Y-80533333D01*
X153622380Y-80628571D01*
X153908095Y-80628571D01*
X154289047Y-80533333D01*
X154479523Y-80438095D01*
X154670000Y-80247619D01*
X154765238Y-79961904D01*
X154765238Y-79771428D01*
X154670000Y-79485714D01*
X154574761Y-79390476D01*
X152765238Y-77580952D02*
X152765238Y-78533333D01*
X154765238Y-78533333D01*
X154765238Y-76533333D02*
X154765238Y-76152380D01*
X154670000Y-75961904D01*
X154479523Y-75771428D01*
X154098571Y-75676190D01*
X153431904Y-75676190D01*
X153050952Y-75771428D01*
X152860476Y-75961904D01*
X152765238Y-76152380D01*
X152765238Y-76533333D01*
X152860476Y-76723809D01*
X153050952Y-76914285D01*
X153431904Y-77009523D01*
X154098571Y-77009523D01*
X154479523Y-76914285D01*
X154670000Y-76723809D01*
X154765238Y-76533333D01*
X152765238Y-74819047D02*
X154765238Y-74819047D01*
X152765238Y-73676190D01*
X154765238Y-73676190D01*
X153812857Y-72723809D02*
X153812857Y-72057142D01*
X152765238Y-71771428D02*
X152765238Y-72723809D01*
X154765238Y-72723809D01*
X154765238Y-71771428D01*
X156321238Y-86771333D02*
X158321238Y-86771333D01*
X157559333Y-86771333D02*
X157654571Y-86580857D01*
X157654571Y-86199904D01*
X157559333Y-86009428D01*
X157464095Y-85914190D01*
X157273619Y-85818952D01*
X156702190Y-85818952D01*
X156511714Y-85914190D01*
X156416476Y-86009428D01*
X156321238Y-86199904D01*
X156321238Y-86580857D01*
X156416476Y-86771333D01*
X157654571Y-85152285D02*
X156321238Y-84676095D01*
X157654571Y-84199904D02*
X156321238Y-84676095D01*
X155845047Y-84866571D01*
X155749809Y-84961809D01*
X155654571Y-85152285D01*
X156321238Y-81914190D02*
X158321238Y-81914190D01*
X156321238Y-80771333D01*
X158321238Y-80771333D01*
X156321238Y-79818952D02*
X157654571Y-79818952D01*
X158321238Y-79818952D02*
X158226000Y-79914190D01*
X158130761Y-79818952D01*
X158226000Y-79723714D01*
X158321238Y-79818952D01*
X158130761Y-79818952D01*
X157654571Y-78866571D02*
X156321238Y-78866571D01*
X157464095Y-78866571D02*
X157559333Y-78771333D01*
X157654571Y-78580857D01*
X157654571Y-78295142D01*
X157559333Y-78104666D01*
X157368857Y-78009428D01*
X156321238Y-78009428D01*
X157654571Y-77057047D02*
X155940285Y-77057047D01*
X155749809Y-77152285D01*
X155654571Y-77342761D01*
X155654571Y-77438000D01*
X158321238Y-77057047D02*
X158226000Y-77152285D01*
X158130761Y-77057047D01*
X158226000Y-76961809D01*
X158321238Y-77057047D01*
X158130761Y-77057047D01*
X156321238Y-75247523D02*
X157368857Y-75247523D01*
X157559333Y-75342761D01*
X157654571Y-75533238D01*
X157654571Y-75914190D01*
X157559333Y-76104666D01*
X156416476Y-75247523D02*
X156321238Y-75438000D01*
X156321238Y-75914190D01*
X156416476Y-76104666D01*
X156606952Y-76199904D01*
X156797428Y-76199904D01*
X156987904Y-76104666D01*
X157083142Y-75914190D01*
X157083142Y-75438000D01*
X157178380Y-75247523D01*
X156321238Y-72771333D02*
X158321238Y-72771333D01*
X156892666Y-72104666D01*
X158321238Y-71438000D01*
X156321238Y-71438000D01*
X156321238Y-70485619D02*
X157654571Y-70485619D01*
X158321238Y-70485619D02*
X158226000Y-70580857D01*
X158130761Y-70485619D01*
X158226000Y-70390380D01*
X158321238Y-70485619D01*
X158130761Y-70485619D01*
X156416476Y-68676095D02*
X156321238Y-68866571D01*
X156321238Y-69247523D01*
X156416476Y-69438000D01*
X156511714Y-69533238D01*
X156702190Y-69628476D01*
X157273619Y-69628476D01*
X157464095Y-69533238D01*
X157559333Y-69438000D01*
X157654571Y-69247523D01*
X157654571Y-68866571D01*
X157559333Y-68676095D01*
X156321238Y-67818952D02*
X157654571Y-67818952D01*
X157273619Y-67818952D02*
X157464095Y-67723714D01*
X157559333Y-67628476D01*
X157654571Y-67438000D01*
X157654571Y-67247523D01*
X156321238Y-66295142D02*
X156416476Y-66485619D01*
X156511714Y-66580857D01*
X156702190Y-66676095D01*
X157273619Y-66676095D01*
X157464095Y-66580857D01*
X157559333Y-66485619D01*
X157654571Y-66295142D01*
X157654571Y-66009428D01*
X157559333Y-65818952D01*
X157464095Y-65723714D01*
X157273619Y-65628476D01*
X156702190Y-65628476D01*
X156511714Y-65723714D01*
X156416476Y-65818952D01*
X156321238Y-66009428D01*
X156321238Y-66295142D01*
X156416476Y-64866571D02*
X156321238Y-64676095D01*
X156321238Y-64295142D01*
X156416476Y-64104666D01*
X156606952Y-64009428D01*
X156702190Y-64009428D01*
X156892666Y-64104666D01*
X156987904Y-64295142D01*
X156987904Y-64580857D01*
X157083142Y-64771333D01*
X157273619Y-64866571D01*
X157368857Y-64866571D01*
X157559333Y-64771333D01*
X157654571Y-64580857D01*
X157654571Y-64295142D01*
X157559333Y-64104666D01*
X160670857Y-85247523D02*
X160670857Y-85914190D01*
X159623238Y-85914190D02*
X161623238Y-85914190D01*
X161623238Y-84961809D01*
X159623238Y-84199904D02*
X160956571Y-84199904D01*
X160575619Y-84199904D02*
X160766095Y-84104666D01*
X160861333Y-84009428D01*
X160956571Y-83818952D01*
X160956571Y-83628476D01*
X159718476Y-82199904D02*
X159623238Y-82390380D01*
X159623238Y-82771333D01*
X159718476Y-82961809D01*
X159908952Y-83057047D01*
X160670857Y-83057047D01*
X160861333Y-82961809D01*
X160956571Y-82771333D01*
X160956571Y-82390380D01*
X160861333Y-82199904D01*
X160670857Y-82104666D01*
X160480380Y-82104666D01*
X160289904Y-83057047D01*
X159718476Y-80485619D02*
X159623238Y-80676095D01*
X159623238Y-81057047D01*
X159718476Y-81247523D01*
X159908952Y-81342761D01*
X160670857Y-81342761D01*
X160861333Y-81247523D01*
X160956571Y-81057047D01*
X160956571Y-80676095D01*
X160861333Y-80485619D01*
X160670857Y-80390380D01*
X160480380Y-80390380D01*
X160289904Y-81342761D01*
X159718476Y-79628476D02*
X159623238Y-79342761D01*
X159623238Y-78866571D01*
X159718476Y-78676095D01*
X159813714Y-78580857D01*
X160004190Y-78485619D01*
X160194666Y-78485619D01*
X160385142Y-78580857D01*
X160480380Y-78676095D01*
X160575619Y-78866571D01*
X160670857Y-79247523D01*
X160766095Y-79438000D01*
X160861333Y-79533238D01*
X161051809Y-79628476D01*
X161242285Y-79628476D01*
X161432761Y-79533238D01*
X161528000Y-79438000D01*
X161623238Y-79247523D01*
X161623238Y-78771333D01*
X161528000Y-78485619D01*
X160956571Y-77628476D02*
X158956571Y-77628476D01*
X160861333Y-77628476D02*
X160956571Y-77438000D01*
X160956571Y-77057047D01*
X160861333Y-76866571D01*
X160766095Y-76771333D01*
X160575619Y-76676095D01*
X160004190Y-76676095D01*
X159813714Y-76771333D01*
X159718476Y-76866571D01*
X159623238Y-77057047D01*
X159623238Y-77438000D01*
X159718476Y-77628476D01*
X159718476Y-75057047D02*
X159623238Y-75247523D01*
X159623238Y-75628476D01*
X159718476Y-75818952D01*
X159908952Y-75914190D01*
X160670857Y-75914190D01*
X160861333Y-75818952D01*
X160956571Y-75628476D01*
X160956571Y-75247523D01*
X160861333Y-75057047D01*
X160670857Y-74961809D01*
X160480380Y-74961809D01*
X160289904Y-75914190D01*
X159718476Y-73342761D02*
X159623238Y-73533238D01*
X159623238Y-73914190D01*
X159718476Y-74104666D01*
X159908952Y-74199904D01*
X160670857Y-74199904D01*
X160861333Y-74104666D01*
X160956571Y-73914190D01*
X160956571Y-73533238D01*
X160861333Y-73342761D01*
X160670857Y-73247523D01*
X160480380Y-73247523D01*
X160289904Y-74199904D01*
X159623238Y-71533238D02*
X161623238Y-71533238D01*
X159718476Y-71533238D02*
X159623238Y-71723714D01*
X159623238Y-72104666D01*
X159718476Y-72295142D01*
X159813714Y-72390380D01*
X160004190Y-72485619D01*
X160575619Y-72485619D01*
X160766095Y-72390380D01*
X160861333Y-72295142D01*
X160956571Y-72104666D01*
X160956571Y-71723714D01*
X160861333Y-71533238D01*
X159623238Y-69057047D02*
X161623238Y-69057047D01*
X161623238Y-68295142D01*
X161528000Y-68104666D01*
X161432761Y-68009428D01*
X161242285Y-67914190D01*
X160956571Y-67914190D01*
X160766095Y-68009428D01*
X160670857Y-68104666D01*
X160575619Y-68295142D01*
X160575619Y-69057047D01*
X159623238Y-67057047D02*
X160956571Y-67057047D01*
X160575619Y-67057047D02*
X160766095Y-66961809D01*
X160861333Y-66866571D01*
X160956571Y-66676095D01*
X160956571Y-66485619D01*
X159623238Y-65533238D02*
X159718476Y-65723714D01*
X159813714Y-65818952D01*
X160004190Y-65914190D01*
X160575619Y-65914190D01*
X160766095Y-65818952D01*
X160861333Y-65723714D01*
X160956571Y-65533238D01*
X160956571Y-65247523D01*
X160861333Y-65057047D01*
X160766095Y-64961809D01*
X160575619Y-64866571D01*
X160004190Y-64866571D01*
X159813714Y-64961809D01*
X159718476Y-65057047D01*
X159623238Y-65247523D01*
X159623238Y-65533238D01*
D11*
%TO.C,SW1*%
X142621000Y-57064667D02*
X141351000Y-57064667D01*
X141421000Y-58418000D02*
X141421000Y-57064667D01*
X141541000Y-58418000D02*
X141541000Y-57064667D01*
X141661000Y-58418000D02*
X141661000Y-57064667D01*
X141781000Y-58418000D02*
X141781000Y-57064667D01*
X141901000Y-58418000D02*
X141901000Y-57064667D01*
X142021000Y-58418000D02*
X142021000Y-57064667D01*
X142141000Y-58418000D02*
X142141000Y-57064667D01*
X142261000Y-58418000D02*
X142261000Y-57064667D01*
X142381000Y-58418000D02*
X142381000Y-57064667D01*
X142501000Y-58418000D02*
X142501000Y-57064667D01*
X142621000Y-54358000D02*
X142621000Y-58418000D01*
X141351000Y-54358000D02*
X142621000Y-54358000D01*
X141351000Y-58418000D02*
X141351000Y-54358000D01*
X142621000Y-58418000D02*
X141351000Y-58418000D01*
X145161000Y-57064667D02*
X143891000Y-57064667D01*
X143961000Y-58418000D02*
X143961000Y-57064667D01*
X144081000Y-58418000D02*
X144081000Y-57064667D01*
X144201000Y-58418000D02*
X144201000Y-57064667D01*
X144321000Y-58418000D02*
X144321000Y-57064667D01*
X144441000Y-58418000D02*
X144441000Y-57064667D01*
X144561000Y-58418000D02*
X144561000Y-57064667D01*
X144681000Y-58418000D02*
X144681000Y-57064667D01*
X144801000Y-58418000D02*
X144801000Y-57064667D01*
X144921000Y-58418000D02*
X144921000Y-57064667D01*
X145041000Y-58418000D02*
X145041000Y-57064667D01*
X145161000Y-54358000D02*
X145161000Y-58418000D01*
X143891000Y-54358000D02*
X145161000Y-54358000D01*
X143891000Y-58418000D02*
X143891000Y-54358000D01*
X145161000Y-58418000D02*
X143891000Y-58418000D01*
X147701000Y-57064667D02*
X146431000Y-57064667D01*
X146501000Y-58418000D02*
X146501000Y-57064667D01*
X146621000Y-58418000D02*
X146621000Y-57064667D01*
X146741000Y-58418000D02*
X146741000Y-57064667D01*
X146861000Y-58418000D02*
X146861000Y-57064667D01*
X146981000Y-58418000D02*
X146981000Y-57064667D01*
X147101000Y-58418000D02*
X147101000Y-57064667D01*
X147221000Y-58418000D02*
X147221000Y-57064667D01*
X147341000Y-58418000D02*
X147341000Y-57064667D01*
X147461000Y-58418000D02*
X147461000Y-57064667D01*
X147581000Y-58418000D02*
X147581000Y-57064667D01*
X147701000Y-54358000D02*
X147701000Y-58418000D01*
X146431000Y-54358000D02*
X147701000Y-54358000D01*
X146431000Y-58418000D02*
X146431000Y-54358000D01*
X147701000Y-58418000D02*
X146431000Y-58418000D01*
X150241000Y-57064667D02*
X148971000Y-57064667D01*
X149041000Y-58418000D02*
X149041000Y-57064667D01*
X149161000Y-58418000D02*
X149161000Y-57064667D01*
X149281000Y-58418000D02*
X149281000Y-57064667D01*
X149401000Y-58418000D02*
X149401000Y-57064667D01*
X149521000Y-58418000D02*
X149521000Y-57064667D01*
X149641000Y-58418000D02*
X149641000Y-57064667D01*
X149761000Y-58418000D02*
X149761000Y-57064667D01*
X149881000Y-58418000D02*
X149881000Y-57064667D01*
X150001000Y-58418000D02*
X150001000Y-57064667D01*
X150121000Y-58418000D02*
X150121000Y-57064667D01*
X150241000Y-54358000D02*
X150241000Y-58418000D01*
X148971000Y-54358000D02*
X150241000Y-54358000D01*
X148971000Y-58418000D02*
X148971000Y-54358000D01*
X150241000Y-58418000D02*
X148971000Y-58418000D01*
X152781000Y-57064667D02*
X151511000Y-57064667D01*
X151581000Y-58418000D02*
X151581000Y-57064667D01*
X151701000Y-58418000D02*
X151701000Y-57064667D01*
X151821000Y-58418000D02*
X151821000Y-57064667D01*
X151941000Y-58418000D02*
X151941000Y-57064667D01*
X152061000Y-58418000D02*
X152061000Y-57064667D01*
X152181000Y-58418000D02*
X152181000Y-57064667D01*
X152301000Y-58418000D02*
X152301000Y-57064667D01*
X152421000Y-58418000D02*
X152421000Y-57064667D01*
X152541000Y-58418000D02*
X152541000Y-57064667D01*
X152661000Y-58418000D02*
X152661000Y-57064667D01*
X152781000Y-54358000D02*
X152781000Y-58418000D01*
X151511000Y-54358000D02*
X152781000Y-54358000D01*
X151511000Y-58418000D02*
X151511000Y-54358000D01*
X152781000Y-58418000D02*
X151511000Y-58418000D01*
X155321000Y-57064667D02*
X154051000Y-57064667D01*
X154121000Y-58418000D02*
X154121000Y-57064667D01*
X154241000Y-58418000D02*
X154241000Y-57064667D01*
X154361000Y-58418000D02*
X154361000Y-57064667D01*
X154481000Y-58418000D02*
X154481000Y-57064667D01*
X154601000Y-58418000D02*
X154601000Y-57064667D01*
X154721000Y-58418000D02*
X154721000Y-57064667D01*
X154841000Y-58418000D02*
X154841000Y-57064667D01*
X154961000Y-58418000D02*
X154961000Y-57064667D01*
X155081000Y-58418000D02*
X155081000Y-57064667D01*
X155201000Y-58418000D02*
X155201000Y-57064667D01*
X155321000Y-54358000D02*
X155321000Y-58418000D01*
X154051000Y-54358000D02*
X155321000Y-54358000D01*
X154051000Y-58418000D02*
X154051000Y-54358000D01*
X155321000Y-58418000D02*
X154051000Y-58418000D01*
X157861000Y-57064667D02*
X156591000Y-57064667D01*
X156661000Y-58418000D02*
X156661000Y-57064667D01*
X156781000Y-58418000D02*
X156781000Y-57064667D01*
X156901000Y-58418000D02*
X156901000Y-57064667D01*
X157021000Y-58418000D02*
X157021000Y-57064667D01*
X157141000Y-58418000D02*
X157141000Y-57064667D01*
X157261000Y-58418000D02*
X157261000Y-57064667D01*
X157381000Y-58418000D02*
X157381000Y-57064667D01*
X157501000Y-58418000D02*
X157501000Y-57064667D01*
X157621000Y-58418000D02*
X157621000Y-57064667D01*
X157741000Y-58418000D02*
X157741000Y-57064667D01*
X157861000Y-54358000D02*
X157861000Y-58418000D01*
X156591000Y-54358000D02*
X157861000Y-54358000D01*
X156591000Y-58418000D02*
X156591000Y-54358000D01*
X157861000Y-58418000D02*
X156591000Y-58418000D01*
X160401000Y-57064667D02*
X159131000Y-57064667D01*
X159201000Y-58418000D02*
X159201000Y-57064667D01*
X159321000Y-58418000D02*
X159321000Y-57064667D01*
X159441000Y-58418000D02*
X159441000Y-57064667D01*
X159561000Y-58418000D02*
X159561000Y-57064667D01*
X159681000Y-58418000D02*
X159681000Y-57064667D01*
X159801000Y-58418000D02*
X159801000Y-57064667D01*
X159921000Y-58418000D02*
X159921000Y-57064667D01*
X160041000Y-58418000D02*
X160041000Y-57064667D01*
X160161000Y-58418000D02*
X160161000Y-57064667D01*
X160281000Y-58418000D02*
X160281000Y-57064667D01*
X160401000Y-54358000D02*
X160401000Y-58418000D01*
X159131000Y-54358000D02*
X160401000Y-54358000D01*
X159131000Y-58418000D02*
X159131000Y-54358000D01*
X160401000Y-58418000D02*
X159131000Y-58418000D01*
X162426000Y-61578000D02*
X161043000Y-61578000D01*
X162426000Y-61578000D02*
X162426000Y-60194000D01*
X162186000Y-51438000D02*
X139565000Y-51438000D01*
X162186000Y-61338000D02*
X139565000Y-61338000D01*
X139565000Y-61338000D02*
X139565000Y-51438000D01*
X162186000Y-61338000D02*
X162186000Y-51438000D01*
%TO.C,SW2*%
X131198000Y-61338000D02*
X131198000Y-51438000D01*
X108577000Y-61338000D02*
X108577000Y-51438000D01*
X131198000Y-61338000D02*
X108577000Y-61338000D01*
X131198000Y-51438000D02*
X108577000Y-51438000D01*
X131438000Y-61578000D02*
X131438000Y-60194000D01*
X131438000Y-61578000D02*
X130055000Y-61578000D01*
X129413000Y-58418000D02*
X128143000Y-58418000D01*
X128143000Y-58418000D02*
X128143000Y-54358000D01*
X128143000Y-54358000D02*
X129413000Y-54358000D01*
X129413000Y-54358000D02*
X129413000Y-58418000D01*
X129293000Y-58418000D02*
X129293000Y-57064667D01*
X129173000Y-58418000D02*
X129173000Y-57064667D01*
X129053000Y-58418000D02*
X129053000Y-57064667D01*
X128933000Y-58418000D02*
X128933000Y-57064667D01*
X128813000Y-58418000D02*
X128813000Y-57064667D01*
X128693000Y-58418000D02*
X128693000Y-57064667D01*
X128573000Y-58418000D02*
X128573000Y-57064667D01*
X128453000Y-58418000D02*
X128453000Y-57064667D01*
X128333000Y-58418000D02*
X128333000Y-57064667D01*
X128213000Y-58418000D02*
X128213000Y-57064667D01*
X129413000Y-57064667D02*
X128143000Y-57064667D01*
X126873000Y-58418000D02*
X125603000Y-58418000D01*
X125603000Y-58418000D02*
X125603000Y-54358000D01*
X125603000Y-54358000D02*
X126873000Y-54358000D01*
X126873000Y-54358000D02*
X126873000Y-58418000D01*
X126753000Y-58418000D02*
X126753000Y-57064667D01*
X126633000Y-58418000D02*
X126633000Y-57064667D01*
X126513000Y-58418000D02*
X126513000Y-57064667D01*
X126393000Y-58418000D02*
X126393000Y-57064667D01*
X126273000Y-58418000D02*
X126273000Y-57064667D01*
X126153000Y-58418000D02*
X126153000Y-57064667D01*
X126033000Y-58418000D02*
X126033000Y-57064667D01*
X125913000Y-58418000D02*
X125913000Y-57064667D01*
X125793000Y-58418000D02*
X125793000Y-57064667D01*
X125673000Y-58418000D02*
X125673000Y-57064667D01*
X126873000Y-57064667D02*
X125603000Y-57064667D01*
X124333000Y-58418000D02*
X123063000Y-58418000D01*
X123063000Y-58418000D02*
X123063000Y-54358000D01*
X123063000Y-54358000D02*
X124333000Y-54358000D01*
X124333000Y-54358000D02*
X124333000Y-58418000D01*
X124213000Y-58418000D02*
X124213000Y-57064667D01*
X124093000Y-58418000D02*
X124093000Y-57064667D01*
X123973000Y-58418000D02*
X123973000Y-57064667D01*
X123853000Y-58418000D02*
X123853000Y-57064667D01*
X123733000Y-58418000D02*
X123733000Y-57064667D01*
X123613000Y-58418000D02*
X123613000Y-57064667D01*
X123493000Y-58418000D02*
X123493000Y-57064667D01*
X123373000Y-58418000D02*
X123373000Y-57064667D01*
X123253000Y-58418000D02*
X123253000Y-57064667D01*
X123133000Y-58418000D02*
X123133000Y-57064667D01*
X124333000Y-57064667D02*
X123063000Y-57064667D01*
X121793000Y-58418000D02*
X120523000Y-58418000D01*
X120523000Y-58418000D02*
X120523000Y-54358000D01*
X120523000Y-54358000D02*
X121793000Y-54358000D01*
X121793000Y-54358000D02*
X121793000Y-58418000D01*
X121673000Y-58418000D02*
X121673000Y-57064667D01*
X121553000Y-58418000D02*
X121553000Y-57064667D01*
X121433000Y-58418000D02*
X121433000Y-57064667D01*
X121313000Y-58418000D02*
X121313000Y-57064667D01*
X121193000Y-58418000D02*
X121193000Y-57064667D01*
X121073000Y-58418000D02*
X121073000Y-57064667D01*
X120953000Y-58418000D02*
X120953000Y-57064667D01*
X120833000Y-58418000D02*
X120833000Y-57064667D01*
X120713000Y-58418000D02*
X120713000Y-57064667D01*
X120593000Y-58418000D02*
X120593000Y-57064667D01*
X121793000Y-57064667D02*
X120523000Y-57064667D01*
X119253000Y-58418000D02*
X117983000Y-58418000D01*
X117983000Y-58418000D02*
X117983000Y-54358000D01*
X117983000Y-54358000D02*
X119253000Y-54358000D01*
X119253000Y-54358000D02*
X119253000Y-58418000D01*
X119133000Y-58418000D02*
X119133000Y-57064667D01*
X119013000Y-58418000D02*
X119013000Y-57064667D01*
X118893000Y-58418000D02*
X118893000Y-57064667D01*
X118773000Y-58418000D02*
X118773000Y-57064667D01*
X118653000Y-58418000D02*
X118653000Y-57064667D01*
X118533000Y-58418000D02*
X118533000Y-57064667D01*
X118413000Y-58418000D02*
X118413000Y-57064667D01*
X118293000Y-58418000D02*
X118293000Y-57064667D01*
X118173000Y-58418000D02*
X118173000Y-57064667D01*
X118053000Y-58418000D02*
X118053000Y-57064667D01*
X119253000Y-57064667D02*
X117983000Y-57064667D01*
X116713000Y-58418000D02*
X115443000Y-58418000D01*
X115443000Y-58418000D02*
X115443000Y-54358000D01*
X115443000Y-54358000D02*
X116713000Y-54358000D01*
X116713000Y-54358000D02*
X116713000Y-58418000D01*
X116593000Y-58418000D02*
X116593000Y-57064667D01*
X116473000Y-58418000D02*
X116473000Y-57064667D01*
X116353000Y-58418000D02*
X116353000Y-57064667D01*
X116233000Y-58418000D02*
X116233000Y-57064667D01*
X116113000Y-58418000D02*
X116113000Y-57064667D01*
X115993000Y-58418000D02*
X115993000Y-57064667D01*
X115873000Y-58418000D02*
X115873000Y-57064667D01*
X115753000Y-58418000D02*
X115753000Y-57064667D01*
X115633000Y-58418000D02*
X115633000Y-57064667D01*
X115513000Y-58418000D02*
X115513000Y-57064667D01*
X116713000Y-57064667D02*
X115443000Y-57064667D01*
X114173000Y-58418000D02*
X112903000Y-58418000D01*
X112903000Y-58418000D02*
X112903000Y-54358000D01*
X112903000Y-54358000D02*
X114173000Y-54358000D01*
X114173000Y-54358000D02*
X114173000Y-58418000D01*
X114053000Y-58418000D02*
X114053000Y-57064667D01*
X113933000Y-58418000D02*
X113933000Y-57064667D01*
X113813000Y-58418000D02*
X113813000Y-57064667D01*
X113693000Y-58418000D02*
X113693000Y-57064667D01*
X113573000Y-58418000D02*
X113573000Y-57064667D01*
X113453000Y-58418000D02*
X113453000Y-57064667D01*
X113333000Y-58418000D02*
X113333000Y-57064667D01*
X113213000Y-58418000D02*
X113213000Y-57064667D01*
X113093000Y-58418000D02*
X113093000Y-57064667D01*
X112973000Y-58418000D02*
X112973000Y-57064667D01*
X114173000Y-57064667D02*
X112903000Y-57064667D01*
X111633000Y-58418000D02*
X110363000Y-58418000D01*
X110363000Y-58418000D02*
X110363000Y-54358000D01*
X110363000Y-54358000D02*
X111633000Y-54358000D01*
X111633000Y-54358000D02*
X111633000Y-58418000D01*
X111513000Y-58418000D02*
X111513000Y-57064667D01*
X111393000Y-58418000D02*
X111393000Y-57064667D01*
X111273000Y-58418000D02*
X111273000Y-57064667D01*
X111153000Y-58418000D02*
X111153000Y-57064667D01*
X111033000Y-58418000D02*
X111033000Y-57064667D01*
X110913000Y-58418000D02*
X110913000Y-57064667D01*
X110793000Y-58418000D02*
X110793000Y-57064667D01*
X110673000Y-58418000D02*
X110673000Y-57064667D01*
X110553000Y-58418000D02*
X110553000Y-57064667D01*
X110433000Y-58418000D02*
X110433000Y-57064667D01*
X111633000Y-57064667D02*
X110363000Y-57064667D01*
%TO.C,D3*%
X103668000Y-44230000D02*
X103668000Y-44386000D01*
X103668000Y-46546000D02*
X103668000Y-46702000D01*
X100435665Y-44387392D02*
G75*
G02*
X103668000Y-44230484I1672335J-1078608D01*
G01*
X100435665Y-46544608D02*
G75*
G03*
X103668000Y-46701516I1672335J1078608D01*
G01*
X101066870Y-44386163D02*
G75*
G02*
X103148961Y-44386000I1041130J-1079837D01*
G01*
X101066870Y-46545837D02*
G75*
G03*
X103148961Y-46546000I1041130J1079837D01*
G01*
D12*
%TO.C,J2*%
X142870000Y-83131000D02*
X142870000Y-77816000D01*
X142870000Y-77816000D02*
X107425000Y-77816000D01*
X107425000Y-77816000D02*
X107540000Y-83131000D01*
X142870000Y-86941000D02*
X142870000Y-88846000D01*
X142870000Y-88846000D02*
X140040000Y-88846000D01*
X140040000Y-88846000D02*
X140040000Y-95276000D01*
X140040000Y-95276000D02*
X110370000Y-95276000D01*
X110370000Y-95276000D02*
X110370000Y-88846000D01*
X110370000Y-88846000D02*
X107540000Y-88846000D01*
X107540000Y-88846000D02*
X107540000Y-86941000D01*
X137305000Y-77446000D02*
X137305000Y-77446000D01*
X137205000Y-77446000D02*
X137205000Y-77446000D01*
X137205000Y-77446000D02*
G75*
G02*
X137305000Y-77446000I50000J0D01*
G01*
X137305000Y-77446000D02*
G75*
G02*
X137205000Y-77446000I-50000J0D01*
G01*
%TD*%
M02*
