%TF.GenerationSoftware,KiCad,Pcbnew,(5.1.6)-1*%
%TF.CreationDate,2021-03-31T13:13:50-04:00*%
%TF.ProjectId,Freespeed-Clone,46726565-7370-4656-9564-2d436c6f6e65,rev?*%
%TF.SameCoordinates,Original*%
%TF.FileFunction,Copper,L2,Bot*%
%TF.FilePolarity,Positive*%
%FSLAX46Y46*%
G04 Gerber Fmt 4.6, Leading zero omitted, Abs format (unit mm)*
G04 Created by KiCad (PCBNEW (5.1.6)-1) date 2021-03-31 13:13:50*
%MOMM*%
%LPD*%
G01*
G04 APERTURE LIST*
%TA.AperFunction,ComponentPad*%
%ADD10O,1.600000X1.600000*%
%TD*%
%TA.AperFunction,ComponentPad*%
%ADD11R,1.600000X1.600000*%
%TD*%
%TA.AperFunction,ComponentPad*%
%ADD12R,1.800000X1.800000*%
%TD*%
%TA.AperFunction,ComponentPad*%
%ADD13C,1.800000*%
%TD*%
%TA.AperFunction,ComponentPad*%
%ADD14R,2.775000X2.775000*%
%TD*%
%TA.AperFunction,ComponentPad*%
%ADD15C,2.775000*%
%TD*%
%TA.AperFunction,ComponentPad*%
%ADD16C,1.575000*%
%TD*%
%TA.AperFunction,ComponentPad*%
%ADD17C,4.050000*%
%TD*%
%TA.AperFunction,ViaPad*%
%ADD18C,0.800000*%
%TD*%
%TA.AperFunction,Conductor*%
%ADD19C,0.400000*%
%TD*%
G04 APERTURE END LIST*
D10*
%TO.P,SW1,9*%
%TO.N,Net-(R9-Pad2)*%
X159766000Y-52578000D03*
%TO.P,SW1,8*%
%TO.N,Net-(J2-Pad3)*%
X141986000Y-60198000D03*
%TO.P,SW1,10*%
%TO.N,Net-(R8-Pad2)*%
X157226000Y-52578000D03*
%TO.P,SW1,7*%
%TO.N,Net-(J2-Pad2)*%
X144526000Y-60198000D03*
%TO.P,SW1,11*%
%TO.N,Net-(R7-Pad2)*%
X154686000Y-52578000D03*
%TO.P,SW1,6*%
%TO.N,Net-(J2-Pad23)*%
X147066000Y-60198000D03*
%TO.P,SW1,12*%
%TO.N,Net-(R6-Pad2)*%
X152146000Y-52578000D03*
%TO.P,SW1,5*%
%TO.N,Net-(J2-Pad22)*%
X149606000Y-60198000D03*
%TO.P,SW1,13*%
%TO.N,Net-(R5-Pad2)*%
X149606000Y-52578000D03*
%TO.P,SW1,4*%
%TO.N,Net-(J2-Pad3)*%
X152146000Y-60198000D03*
%TO.P,SW1,14*%
%TO.N,Net-(R4-Pad2)*%
X147066000Y-52578000D03*
%TO.P,SW1,3*%
%TO.N,Net-(J2-Pad2)*%
X154686000Y-60198000D03*
%TO.P,SW1,15*%
%TO.N,Net-(R3-Pad2)*%
X144526000Y-52578000D03*
%TO.P,SW1,2*%
%TO.N,Net-(J2-Pad23)*%
X157226000Y-60198000D03*
%TO.P,SW1,16*%
%TO.N,Net-(R2-Pad2)*%
X141986000Y-52578000D03*
D11*
%TO.P,SW1,1*%
%TO.N,Net-(J2-Pad22)*%
X159766000Y-60198000D03*
%TD*%
%TO.P,SW2,1*%
%TO.N,Net-(J2-Pad39)*%
X128778000Y-60198000D03*
D10*
%TO.P,SW2,16*%
%TO.N,GND*%
X110998000Y-52578000D03*
%TO.P,SW2,2*%
%TO.N,Net-(J2-Pad38)*%
X126238000Y-60198000D03*
%TO.P,SW2,15*%
%TO.N,GND*%
X113538000Y-52578000D03*
%TO.P,SW2,3*%
%TO.N,Net-(J2-Pad19)*%
X123698000Y-60198000D03*
%TO.P,SW2,14*%
%TO.N,GND*%
X116078000Y-52578000D03*
%TO.P,SW2,4*%
%TO.N,Net-(J2-Pad18)*%
X121158000Y-60198000D03*
%TO.P,SW2,13*%
%TO.N,GND*%
X118618000Y-52578000D03*
%TO.P,SW2,5*%
%TO.N,Net-(J2-Pad17)*%
X118618000Y-60198000D03*
%TO.P,SW2,12*%
%TO.N,GND*%
X121158000Y-52578000D03*
%TO.P,SW2,6*%
%TO.N,Net-(J2-Pad16)*%
X116078000Y-60198000D03*
%TO.P,SW2,11*%
%TO.N,GND*%
X123698000Y-52578000D03*
%TO.P,SW2,7*%
%TO.N,Net-(J2-Pad5)*%
X113538000Y-60198000D03*
%TO.P,SW2,10*%
%TO.N,GND*%
X126238000Y-52578000D03*
%TO.P,SW2,8*%
%TO.N,Net-(J2-Pad4)*%
X110998000Y-60198000D03*
%TO.P,SW2,9*%
%TO.N,GND*%
X128778000Y-52578000D03*
%TD*%
D12*
%TO.P,D3,1*%
%TO.N,Net-(D3-Pad1)*%
X103378000Y-45466000D03*
D13*
%TO.P,D3,2*%
%TO.N,+5V*%
X100838000Y-45466000D03*
%TD*%
D14*
%TO.P,J1,1*%
%TO.N,Net-(J1-Pad1)*%
X103886000Y-70358000D03*
D15*
%TO.P,J1,2*%
%TO.N,Net-(J1-Pad2)*%
X103886000Y-65278000D03*
%TO.P,J1,3*%
%TO.N,GND*%
X103886000Y-60198000D03*
%TO.P,J1,4*%
%TO.N,+5V*%
X103886000Y-55118000D03*
%TD*%
D16*
%TO.P,J2,1*%
%TO.N,Net-(J2-Pad1)*%
X137270000Y-79121000D03*
%TO.P,J2,2*%
%TO.N,Net-(J2-Pad2)*%
X136000000Y-81026000D03*
%TO.P,J2,3*%
%TO.N,Net-(J2-Pad3)*%
X134730000Y-79121000D03*
%TO.P,J2,4*%
%TO.N,Net-(J2-Pad4)*%
X133460000Y-81026000D03*
%TO.P,J2,5*%
%TO.N,Net-(J2-Pad5)*%
X132190000Y-79121000D03*
%TO.P,J2,6*%
%TO.N,Net-(J2-Pad13)*%
X130920000Y-81026000D03*
%TO.P,J2,7*%
%TO.N,Net-(J2-Pad7)*%
X129650000Y-79121000D03*
%TO.P,J2,8*%
%TO.N,Net-(J2-Pad8)*%
X128380000Y-81026000D03*
%TO.P,J2,9*%
%TO.N,Net-(J2-Pad13)*%
X127110000Y-79121000D03*
%TO.P,J2,10*%
%TO.N,Net-(J2-Pad10)*%
X125840000Y-81026000D03*
%TO.P,J2,11*%
%TO.N,Net-(J2-Pad11)*%
X124570000Y-79121000D03*
%TO.P,J2,12*%
%TO.N,Net-(J2-Pad12)*%
X123300000Y-81026000D03*
%TO.P,J2,13*%
%TO.N,Net-(J2-Pad13)*%
X122030000Y-79121000D03*
%TO.P,J2,14*%
%TO.N,Net-(J2-Pad14)*%
X120760000Y-81026000D03*
%TO.P,J2,15*%
%TO.N,Net-(J2-Pad15)*%
X119490000Y-79121000D03*
%TO.P,J2,16*%
%TO.N,Net-(J2-Pad16)*%
X118220000Y-81026000D03*
%TO.P,J2,17*%
%TO.N,Net-(J2-Pad17)*%
X116950000Y-79121000D03*
%TO.P,J2,18*%
%TO.N,Net-(J2-Pad18)*%
X115680000Y-81026000D03*
%TO.P,J2,19*%
%TO.N,Net-(J2-Pad19)*%
X114410000Y-79121000D03*
%TO.P,J2,20*%
%TO.N,Net-(J2-Pad20)*%
X113140000Y-81026000D03*
%TO.P,J2,21*%
%TO.N,Net-(J2-Pad21)*%
X137270000Y-82931000D03*
%TO.P,J2,22*%
%TO.N,Net-(J2-Pad22)*%
X136000000Y-84836000D03*
%TO.P,J2,23*%
%TO.N,Net-(J2-Pad23)*%
X134730000Y-82931000D03*
%TO.P,J2,24*%
%TO.N,Net-(J2-Pad24)*%
X133460000Y-84836000D03*
%TO.P,J2,25*%
%TO.N,Net-(J2-Pad25)*%
X132190000Y-82931000D03*
%TO.P,J2,26*%
%TO.N,Net-(J2-Pad24)*%
X130920000Y-84836000D03*
%TO.P,J2,27*%
%TO.N,Net-(J2-Pad27)*%
X129650000Y-82931000D03*
%TO.P,J2,28*%
%TO.N,Net-(J2-Pad28)*%
X128380000Y-84836000D03*
%TO.P,J2,29*%
%TO.N,Net-(J2-Pad24)*%
X127110000Y-82931000D03*
%TO.P,J2,30*%
%TO.N,Net-(J2-Pad30)*%
X125840000Y-84836000D03*
%TO.P,J2,31*%
%TO.N,Net-(J2-Pad31)*%
X124570000Y-82931000D03*
%TO.P,J2,32*%
%TO.N,Net-(J2-Pad32)*%
X123300000Y-84836000D03*
%TO.P,J2,33*%
%TO.N,Net-(J2-Pad24)*%
X122030000Y-82931000D03*
%TO.P,J2,34*%
%TO.N,Net-(J2-Pad34)*%
X120760000Y-84836000D03*
%TO.P,J2,35*%
%TO.N,Net-(J2-Pad35)*%
X119490000Y-82931000D03*
%TO.P,J2,36*%
%TO.N,Net-(J2-Pad36)*%
X118220000Y-84836000D03*
%TO.P,J2,37*%
%TO.N,Net-(J2-Pad24)*%
X116950000Y-82931000D03*
%TO.P,J2,38*%
%TO.N,Net-(J2-Pad38)*%
X115680000Y-84836000D03*
%TO.P,J2,39*%
%TO.N,Net-(J2-Pad39)*%
X114410000Y-82931000D03*
%TO.P,J2,40*%
%TO.N,Net-(J2-Pad24)*%
X113140000Y-84836000D03*
D17*
%TO.P,J2,41*%
%TO.N,N/C*%
X140970000Y-84836000D03*
%TO.P,J2,42*%
X109440000Y-84836000D03*
%TD*%
D18*
%TO.N,+5V*%
X131318000Y-50292000D03*
X131318000Y-68834000D03*
%TO.N,Net-(J2-Pad2)*%
X147572002Y-70610002D03*
X140209998Y-70610002D03*
%TO.N,Net-(J2-Pad4)*%
X126746000Y-68834000D03*
X110236000Y-65024000D03*
%TO.N,Net-(J2-Pad5)*%
X124460000Y-68834000D03*
X111505992Y-66040000D03*
%TO.N,Net-(J2-Pad13)*%
X137741000Y-45285000D03*
%TO.N,Net-(J2-Pad17)*%
X117094000Y-75438000D03*
X117094000Y-68072000D03*
%TO.N,Net-(J2-Pad18)*%
X115823992Y-70104000D03*
X115823984Y-75438000D03*
%TO.N,Net-(J2-Pad22)*%
X151406010Y-72367990D03*
X142008010Y-72367990D03*
%TO.N,Net-(J2-Pad24)*%
X117741001Y-87261001D03*
%TO.N,Net-(J2-Pad38)*%
X107950000Y-62992000D03*
%TO.N,Net-(J2-Pad39)*%
X108966000Y-64008000D03*
%TD*%
D19*
%TO.N,+5V*%
X100838000Y-52070000D02*
X103886000Y-55118000D01*
X100838000Y-45466000D02*
X100838000Y-52070000D01*
X131318000Y-50292000D02*
X131318000Y-68834000D01*
%TO.N,Net-(J2-Pad2)*%
X147572002Y-70610002D02*
X140209998Y-70610002D01*
X140209998Y-70610002D02*
X140209998Y-70610002D01*
%TO.N,Net-(J2-Pad4)*%
X126746000Y-68834000D02*
X126746000Y-68834000D01*
X122936000Y-65024000D02*
X110236000Y-65024000D01*
X126746000Y-68834000D02*
X122936000Y-65024000D01*
%TO.N,Net-(J2-Pad5)*%
X124460000Y-68834000D02*
X124460000Y-68834000D01*
X121666000Y-66040000D02*
X111505992Y-66040000D01*
X124460000Y-68834000D02*
X121666000Y-66040000D01*
%TO.N,Net-(J2-Pad13)*%
X137741000Y-45285000D02*
X137741000Y-70031000D01*
X137741000Y-70031000D02*
X134112000Y-73660000D01*
X134112000Y-73660000D02*
X129286000Y-73660000D01*
X127110000Y-75836000D02*
X127110000Y-79121000D01*
X129286000Y-73660000D02*
X127110000Y-75836000D01*
%TO.N,Net-(J2-Pad17)*%
X117094000Y-75438000D02*
X117094000Y-75438000D01*
X117094000Y-75438000D02*
X117094000Y-68072000D01*
%TO.N,Net-(J2-Pad18)*%
X115824000Y-75438000D02*
X115824000Y-75438000D01*
X115823992Y-70104000D02*
X115823992Y-75437992D01*
X115823992Y-75437992D02*
X115823984Y-75438000D01*
%TO.N,Net-(J2-Pad19)*%
X123698000Y-58420000D02*
X123698000Y-60198000D01*
X122936000Y-57658000D02*
X123698000Y-58420000D01*
X114410000Y-76818000D02*
X106426000Y-68834000D01*
X106426000Y-68834000D02*
X106426000Y-61214000D01*
X114410000Y-79121000D02*
X114410000Y-76818000D01*
X106426000Y-61214000D02*
X109982000Y-57658000D01*
X109982000Y-57658000D02*
X122936000Y-57658000D01*
%TO.N,Net-(J2-Pad22)*%
X151406010Y-72367990D02*
X142008010Y-72367990D01*
X142008010Y-72367990D02*
X142008010Y-72367990D01*
%TO.N,Net-(J2-Pad24)*%
X117741001Y-87261001D02*
X113931001Y-87261001D01*
X113140000Y-86470000D02*
X113140000Y-84836000D01*
X113931001Y-87261001D02*
X113140000Y-86470000D01*
%TO.N,Net-(J2-Pad38)*%
X126238000Y-60198000D02*
X126238000Y-61976000D01*
X126238000Y-61976000D02*
X125222000Y-62992000D01*
X125222000Y-62992000D02*
X107950000Y-62992000D01*
X107950000Y-62992000D02*
X107950000Y-62992000D01*
%TO.N,Net-(J2-Pad39)*%
X108966000Y-64008000D02*
X108966000Y-64008000D01*
X126238000Y-64008000D02*
X110658002Y-64008000D01*
X128778000Y-60198000D02*
X128778000Y-61468000D01*
X110658002Y-64008000D02*
X108966000Y-64008000D01*
X128778000Y-61468000D02*
X126238000Y-64008000D01*
%TD*%
M02*
