%TF.GenerationSoftware,KiCad,Pcbnew,(5.1.6)-1*%
%TF.CreationDate,2021-03-31T13:13:50-04:00*%
%TF.ProjectId,Freespeed-Clone,46726565-7370-4656-9564-2d436c6f6e65,rev?*%
%TF.SameCoordinates,Original*%
%TF.FileFunction,Copper,L1,Top*%
%TF.FilePolarity,Positive*%
%FSLAX46Y46*%
G04 Gerber Fmt 4.6, Leading zero omitted, Abs format (unit mm)*
G04 Created by KiCad (PCBNEW (5.1.6)-1) date 2021-03-31 13:13:50*
%MOMM*%
%LPD*%
G01*
G04 APERTURE LIST*
%TA.AperFunction,ComponentPad*%
%ADD10O,1.600000X1.600000*%
%TD*%
%TA.AperFunction,ComponentPad*%
%ADD11R,1.600000X1.600000*%
%TD*%
%TA.AperFunction,ComponentPad*%
%ADD12R,1.800000X1.800000*%
%TD*%
%TA.AperFunction,ComponentPad*%
%ADD13C,1.800000*%
%TD*%
%TA.AperFunction,ComponentPad*%
%ADD14R,2.775000X2.775000*%
%TD*%
%TA.AperFunction,ComponentPad*%
%ADD15C,2.775000*%
%TD*%
%TA.AperFunction,ComponentPad*%
%ADD16C,1.575000*%
%TD*%
%TA.AperFunction,ComponentPad*%
%ADD17C,4.050000*%
%TD*%
%TA.AperFunction,SMDPad,CuDef*%
%ADD18R,1.700000X3.300000*%
%TD*%
%TA.AperFunction,ViaPad*%
%ADD19C,0.800000*%
%TD*%
%TA.AperFunction,Conductor*%
%ADD20C,0.400000*%
%TD*%
G04 APERTURE END LIST*
%TO.P,R1,2*%
%TO.N,Net-(D3-Pad1)*%
%TA.AperFunction,SMDPad,CuDef*%
G36*
G01*
X108735500Y-44841000D02*
X108735500Y-46091000D01*
G75*
G02*
X108485500Y-46341000I-250000J0D01*
G01*
X107560500Y-46341000D01*
G75*
G02*
X107310500Y-46091000I0J250000D01*
G01*
X107310500Y-44841000D01*
G75*
G02*
X107560500Y-44591000I250000J0D01*
G01*
X108485500Y-44591000D01*
G75*
G02*
X108735500Y-44841000I0J-250000D01*
G01*
G37*
%TD.AperFunction*%
%TO.P,R1,1*%
%TO.N,GND*%
%TA.AperFunction,SMDPad,CuDef*%
G36*
G01*
X111710500Y-44841000D02*
X111710500Y-46091000D01*
G75*
G02*
X111460500Y-46341000I-250000J0D01*
G01*
X110535500Y-46341000D01*
G75*
G02*
X110285500Y-46091000I0J250000D01*
G01*
X110285500Y-44841000D01*
G75*
G02*
X110535500Y-44591000I250000J0D01*
G01*
X111460500Y-44591000D01*
G75*
G02*
X111710500Y-44841000I0J-250000D01*
G01*
G37*
%TD.AperFunction*%
%TD*%
D10*
%TO.P,SW1,9*%
%TO.N,Net-(R9-Pad2)*%
X159766000Y-52578000D03*
%TO.P,SW1,8*%
%TO.N,Net-(J2-Pad3)*%
X141986000Y-60198000D03*
%TO.P,SW1,10*%
%TO.N,Net-(R8-Pad2)*%
X157226000Y-52578000D03*
%TO.P,SW1,7*%
%TO.N,Net-(J2-Pad2)*%
X144526000Y-60198000D03*
%TO.P,SW1,11*%
%TO.N,Net-(R7-Pad2)*%
X154686000Y-52578000D03*
%TO.P,SW1,6*%
%TO.N,Net-(J2-Pad23)*%
X147066000Y-60198000D03*
%TO.P,SW1,12*%
%TO.N,Net-(R6-Pad2)*%
X152146000Y-52578000D03*
%TO.P,SW1,5*%
%TO.N,Net-(J2-Pad22)*%
X149606000Y-60198000D03*
%TO.P,SW1,13*%
%TO.N,Net-(R5-Pad2)*%
X149606000Y-52578000D03*
%TO.P,SW1,4*%
%TO.N,Net-(J2-Pad3)*%
X152146000Y-60198000D03*
%TO.P,SW1,14*%
%TO.N,Net-(R4-Pad2)*%
X147066000Y-52578000D03*
%TO.P,SW1,3*%
%TO.N,Net-(J2-Pad2)*%
X154686000Y-60198000D03*
%TO.P,SW1,15*%
%TO.N,Net-(R3-Pad2)*%
X144526000Y-52578000D03*
%TO.P,SW1,2*%
%TO.N,Net-(J2-Pad23)*%
X157226000Y-60198000D03*
%TO.P,SW1,16*%
%TO.N,Net-(R2-Pad2)*%
X141986000Y-52578000D03*
D11*
%TO.P,SW1,1*%
%TO.N,Net-(J2-Pad22)*%
X159766000Y-60198000D03*
%TD*%
%TO.P,SW2,1*%
%TO.N,Net-(J2-Pad39)*%
X128778000Y-60198000D03*
D10*
%TO.P,SW2,16*%
%TO.N,GND*%
X110998000Y-52578000D03*
%TO.P,SW2,2*%
%TO.N,Net-(J2-Pad38)*%
X126238000Y-60198000D03*
%TO.P,SW2,15*%
%TO.N,GND*%
X113538000Y-52578000D03*
%TO.P,SW2,3*%
%TO.N,Net-(J2-Pad19)*%
X123698000Y-60198000D03*
%TO.P,SW2,14*%
%TO.N,GND*%
X116078000Y-52578000D03*
%TO.P,SW2,4*%
%TO.N,Net-(J2-Pad18)*%
X121158000Y-60198000D03*
%TO.P,SW2,13*%
%TO.N,GND*%
X118618000Y-52578000D03*
%TO.P,SW2,5*%
%TO.N,Net-(J2-Pad17)*%
X118618000Y-60198000D03*
%TO.P,SW2,12*%
%TO.N,GND*%
X121158000Y-52578000D03*
%TO.P,SW2,6*%
%TO.N,Net-(J2-Pad16)*%
X116078000Y-60198000D03*
%TO.P,SW2,11*%
%TO.N,GND*%
X123698000Y-52578000D03*
%TO.P,SW2,7*%
%TO.N,Net-(J2-Pad5)*%
X113538000Y-60198000D03*
%TO.P,SW2,10*%
%TO.N,GND*%
X126238000Y-52578000D03*
%TO.P,SW2,8*%
%TO.N,Net-(J2-Pad4)*%
X110998000Y-60198000D03*
%TO.P,SW2,9*%
%TO.N,GND*%
X128778000Y-52578000D03*
%TD*%
D12*
%TO.P,D3,1*%
%TO.N,Net-(D3-Pad1)*%
X103378000Y-45466000D03*
D13*
%TO.P,D3,2*%
%TO.N,+5V*%
X100838000Y-45466000D03*
%TD*%
D14*
%TO.P,J1,1*%
%TO.N,Net-(J1-Pad1)*%
X103886000Y-70358000D03*
D15*
%TO.P,J1,2*%
%TO.N,Net-(J1-Pad2)*%
X103886000Y-65278000D03*
%TO.P,J1,3*%
%TO.N,GND*%
X103886000Y-60198000D03*
%TO.P,J1,4*%
%TO.N,+5V*%
X103886000Y-55118000D03*
%TD*%
D16*
%TO.P,J2,1*%
%TO.N,Net-(J2-Pad1)*%
X137270000Y-79121000D03*
%TO.P,J2,2*%
%TO.N,Net-(J2-Pad2)*%
X136000000Y-81026000D03*
%TO.P,J2,3*%
%TO.N,Net-(J2-Pad3)*%
X134730000Y-79121000D03*
%TO.P,J2,4*%
%TO.N,Net-(J2-Pad4)*%
X133460000Y-81026000D03*
%TO.P,J2,5*%
%TO.N,Net-(J2-Pad5)*%
X132190000Y-79121000D03*
%TO.P,J2,6*%
%TO.N,Net-(J2-Pad13)*%
X130920000Y-81026000D03*
%TO.P,J2,7*%
%TO.N,Net-(J2-Pad7)*%
X129650000Y-79121000D03*
%TO.P,J2,8*%
%TO.N,Net-(J2-Pad8)*%
X128380000Y-81026000D03*
%TO.P,J2,9*%
%TO.N,Net-(J2-Pad13)*%
X127110000Y-79121000D03*
%TO.P,J2,10*%
%TO.N,Net-(J2-Pad10)*%
X125840000Y-81026000D03*
%TO.P,J2,11*%
%TO.N,Net-(J2-Pad11)*%
X124570000Y-79121000D03*
%TO.P,J2,12*%
%TO.N,Net-(J2-Pad12)*%
X123300000Y-81026000D03*
%TO.P,J2,13*%
%TO.N,Net-(J2-Pad13)*%
X122030000Y-79121000D03*
%TO.P,J2,14*%
%TO.N,Net-(J2-Pad14)*%
X120760000Y-81026000D03*
%TO.P,J2,15*%
%TO.N,Net-(J2-Pad15)*%
X119490000Y-79121000D03*
%TO.P,J2,16*%
%TO.N,Net-(J2-Pad16)*%
X118220000Y-81026000D03*
%TO.P,J2,17*%
%TO.N,Net-(J2-Pad17)*%
X116950000Y-79121000D03*
%TO.P,J2,18*%
%TO.N,Net-(J2-Pad18)*%
X115680000Y-81026000D03*
%TO.P,J2,19*%
%TO.N,Net-(J2-Pad19)*%
X114410000Y-79121000D03*
%TO.P,J2,20*%
%TO.N,Net-(J2-Pad20)*%
X113140000Y-81026000D03*
%TO.P,J2,21*%
%TO.N,Net-(J2-Pad21)*%
X137270000Y-82931000D03*
%TO.P,J2,22*%
%TO.N,Net-(J2-Pad22)*%
X136000000Y-84836000D03*
%TO.P,J2,23*%
%TO.N,Net-(J2-Pad23)*%
X134730000Y-82931000D03*
%TO.P,J2,24*%
%TO.N,Net-(J2-Pad24)*%
X133460000Y-84836000D03*
%TO.P,J2,25*%
%TO.N,Net-(J2-Pad25)*%
X132190000Y-82931000D03*
%TO.P,J2,26*%
%TO.N,Net-(J2-Pad24)*%
X130920000Y-84836000D03*
%TO.P,J2,27*%
%TO.N,Net-(J2-Pad27)*%
X129650000Y-82931000D03*
%TO.P,J2,28*%
%TO.N,Net-(J2-Pad28)*%
X128380000Y-84836000D03*
%TO.P,J2,29*%
%TO.N,Net-(J2-Pad24)*%
X127110000Y-82931000D03*
%TO.P,J2,30*%
%TO.N,Net-(J2-Pad30)*%
X125840000Y-84836000D03*
%TO.P,J2,31*%
%TO.N,Net-(J2-Pad31)*%
X124570000Y-82931000D03*
%TO.P,J2,32*%
%TO.N,Net-(J2-Pad32)*%
X123300000Y-84836000D03*
%TO.P,J2,33*%
%TO.N,Net-(J2-Pad24)*%
X122030000Y-82931000D03*
%TO.P,J2,34*%
%TO.N,Net-(J2-Pad34)*%
X120760000Y-84836000D03*
%TO.P,J2,35*%
%TO.N,Net-(J2-Pad35)*%
X119490000Y-82931000D03*
%TO.P,J2,36*%
%TO.N,Net-(J2-Pad36)*%
X118220000Y-84836000D03*
%TO.P,J2,37*%
%TO.N,Net-(J2-Pad24)*%
X116950000Y-82931000D03*
%TO.P,J2,38*%
%TO.N,Net-(J2-Pad38)*%
X115680000Y-84836000D03*
%TO.P,J2,39*%
%TO.N,Net-(J2-Pad39)*%
X114410000Y-82931000D03*
%TO.P,J2,40*%
%TO.N,Net-(J2-Pad24)*%
X113140000Y-84836000D03*
D17*
%TO.P,J2,41*%
%TO.N,N/C*%
X140970000Y-84836000D03*
%TO.P,J2,42*%
X109440000Y-84836000D03*
%TD*%
%TO.P,R2,1*%
%TO.N,Net-(J2-Pad13)*%
%TA.AperFunction,SMDPad,CuDef*%
G36*
G01*
X141361000Y-44572500D02*
X142611000Y-44572500D01*
G75*
G02*
X142861000Y-44822500I0J-250000D01*
G01*
X142861000Y-45747500D01*
G75*
G02*
X142611000Y-45997500I-250000J0D01*
G01*
X141361000Y-45997500D01*
G75*
G02*
X141111000Y-45747500I0J250000D01*
G01*
X141111000Y-44822500D01*
G75*
G02*
X141361000Y-44572500I250000J0D01*
G01*
G37*
%TD.AperFunction*%
%TO.P,R2,2*%
%TO.N,Net-(R2-Pad2)*%
%TA.AperFunction,SMDPad,CuDef*%
G36*
G01*
X141361000Y-47547500D02*
X142611000Y-47547500D01*
G75*
G02*
X142861000Y-47797500I0J-250000D01*
G01*
X142861000Y-48722500D01*
G75*
G02*
X142611000Y-48972500I-250000J0D01*
G01*
X141361000Y-48972500D01*
G75*
G02*
X141111000Y-48722500I0J250000D01*
G01*
X141111000Y-47797500D01*
G75*
G02*
X141361000Y-47547500I250000J0D01*
G01*
G37*
%TD.AperFunction*%
%TD*%
%TO.P,R3,2*%
%TO.N,Net-(R3-Pad2)*%
%TA.AperFunction,SMDPad,CuDef*%
G36*
G01*
X143901000Y-47547500D02*
X145151000Y-47547500D01*
G75*
G02*
X145401000Y-47797500I0J-250000D01*
G01*
X145401000Y-48722500D01*
G75*
G02*
X145151000Y-48972500I-250000J0D01*
G01*
X143901000Y-48972500D01*
G75*
G02*
X143651000Y-48722500I0J250000D01*
G01*
X143651000Y-47797500D01*
G75*
G02*
X143901000Y-47547500I250000J0D01*
G01*
G37*
%TD.AperFunction*%
%TO.P,R3,1*%
%TO.N,Net-(J2-Pad13)*%
%TA.AperFunction,SMDPad,CuDef*%
G36*
G01*
X143901000Y-44572500D02*
X145151000Y-44572500D01*
G75*
G02*
X145401000Y-44822500I0J-250000D01*
G01*
X145401000Y-45747500D01*
G75*
G02*
X145151000Y-45997500I-250000J0D01*
G01*
X143901000Y-45997500D01*
G75*
G02*
X143651000Y-45747500I0J250000D01*
G01*
X143651000Y-44822500D01*
G75*
G02*
X143901000Y-44572500I250000J0D01*
G01*
G37*
%TD.AperFunction*%
%TD*%
%TO.P,R4,1*%
%TO.N,Net-(J2-Pad13)*%
%TA.AperFunction,SMDPad,CuDef*%
G36*
G01*
X146441000Y-44572500D02*
X147691000Y-44572500D01*
G75*
G02*
X147941000Y-44822500I0J-250000D01*
G01*
X147941000Y-45747500D01*
G75*
G02*
X147691000Y-45997500I-250000J0D01*
G01*
X146441000Y-45997500D01*
G75*
G02*
X146191000Y-45747500I0J250000D01*
G01*
X146191000Y-44822500D01*
G75*
G02*
X146441000Y-44572500I250000J0D01*
G01*
G37*
%TD.AperFunction*%
%TO.P,R4,2*%
%TO.N,Net-(R4-Pad2)*%
%TA.AperFunction,SMDPad,CuDef*%
G36*
G01*
X146441000Y-47547500D02*
X147691000Y-47547500D01*
G75*
G02*
X147941000Y-47797500I0J-250000D01*
G01*
X147941000Y-48722500D01*
G75*
G02*
X147691000Y-48972500I-250000J0D01*
G01*
X146441000Y-48972500D01*
G75*
G02*
X146191000Y-48722500I0J250000D01*
G01*
X146191000Y-47797500D01*
G75*
G02*
X146441000Y-47547500I250000J0D01*
G01*
G37*
%TD.AperFunction*%
%TD*%
%TO.P,R5,2*%
%TO.N,Net-(R5-Pad2)*%
%TA.AperFunction,SMDPad,CuDef*%
G36*
G01*
X148981000Y-47547500D02*
X150231000Y-47547500D01*
G75*
G02*
X150481000Y-47797500I0J-250000D01*
G01*
X150481000Y-48722500D01*
G75*
G02*
X150231000Y-48972500I-250000J0D01*
G01*
X148981000Y-48972500D01*
G75*
G02*
X148731000Y-48722500I0J250000D01*
G01*
X148731000Y-47797500D01*
G75*
G02*
X148981000Y-47547500I250000J0D01*
G01*
G37*
%TD.AperFunction*%
%TO.P,R5,1*%
%TO.N,Net-(J2-Pad13)*%
%TA.AperFunction,SMDPad,CuDef*%
G36*
G01*
X148981000Y-44572500D02*
X150231000Y-44572500D01*
G75*
G02*
X150481000Y-44822500I0J-250000D01*
G01*
X150481000Y-45747500D01*
G75*
G02*
X150231000Y-45997500I-250000J0D01*
G01*
X148981000Y-45997500D01*
G75*
G02*
X148731000Y-45747500I0J250000D01*
G01*
X148731000Y-44822500D01*
G75*
G02*
X148981000Y-44572500I250000J0D01*
G01*
G37*
%TD.AperFunction*%
%TD*%
%TO.P,R6,1*%
%TO.N,GND*%
%TA.AperFunction,SMDPad,CuDef*%
G36*
G01*
X151521000Y-44572500D02*
X152771000Y-44572500D01*
G75*
G02*
X153021000Y-44822500I0J-250000D01*
G01*
X153021000Y-45747500D01*
G75*
G02*
X152771000Y-45997500I-250000J0D01*
G01*
X151521000Y-45997500D01*
G75*
G02*
X151271000Y-45747500I0J250000D01*
G01*
X151271000Y-44822500D01*
G75*
G02*
X151521000Y-44572500I250000J0D01*
G01*
G37*
%TD.AperFunction*%
%TO.P,R6,2*%
%TO.N,Net-(R6-Pad2)*%
%TA.AperFunction,SMDPad,CuDef*%
G36*
G01*
X151521000Y-47547500D02*
X152771000Y-47547500D01*
G75*
G02*
X153021000Y-47797500I0J-250000D01*
G01*
X153021000Y-48722500D01*
G75*
G02*
X152771000Y-48972500I-250000J0D01*
G01*
X151521000Y-48972500D01*
G75*
G02*
X151271000Y-48722500I0J250000D01*
G01*
X151271000Y-47797500D01*
G75*
G02*
X151521000Y-47547500I250000J0D01*
G01*
G37*
%TD.AperFunction*%
%TD*%
%TO.P,R7,2*%
%TO.N,Net-(R7-Pad2)*%
%TA.AperFunction,SMDPad,CuDef*%
G36*
G01*
X154061000Y-47547500D02*
X155311000Y-47547500D01*
G75*
G02*
X155561000Y-47797500I0J-250000D01*
G01*
X155561000Y-48722500D01*
G75*
G02*
X155311000Y-48972500I-250000J0D01*
G01*
X154061000Y-48972500D01*
G75*
G02*
X153811000Y-48722500I0J250000D01*
G01*
X153811000Y-47797500D01*
G75*
G02*
X154061000Y-47547500I250000J0D01*
G01*
G37*
%TD.AperFunction*%
%TO.P,R7,1*%
%TO.N,GND*%
%TA.AperFunction,SMDPad,CuDef*%
G36*
G01*
X154061000Y-44572500D02*
X155311000Y-44572500D01*
G75*
G02*
X155561000Y-44822500I0J-250000D01*
G01*
X155561000Y-45747500D01*
G75*
G02*
X155311000Y-45997500I-250000J0D01*
G01*
X154061000Y-45997500D01*
G75*
G02*
X153811000Y-45747500I0J250000D01*
G01*
X153811000Y-44822500D01*
G75*
G02*
X154061000Y-44572500I250000J0D01*
G01*
G37*
%TD.AperFunction*%
%TD*%
%TO.P,R8,1*%
%TO.N,GND*%
%TA.AperFunction,SMDPad,CuDef*%
G36*
G01*
X156601000Y-44572500D02*
X157851000Y-44572500D01*
G75*
G02*
X158101000Y-44822500I0J-250000D01*
G01*
X158101000Y-45747500D01*
G75*
G02*
X157851000Y-45997500I-250000J0D01*
G01*
X156601000Y-45997500D01*
G75*
G02*
X156351000Y-45747500I0J250000D01*
G01*
X156351000Y-44822500D01*
G75*
G02*
X156601000Y-44572500I250000J0D01*
G01*
G37*
%TD.AperFunction*%
%TO.P,R8,2*%
%TO.N,Net-(R8-Pad2)*%
%TA.AperFunction,SMDPad,CuDef*%
G36*
G01*
X156601000Y-47547500D02*
X157851000Y-47547500D01*
G75*
G02*
X158101000Y-47797500I0J-250000D01*
G01*
X158101000Y-48722500D01*
G75*
G02*
X157851000Y-48972500I-250000J0D01*
G01*
X156601000Y-48972500D01*
G75*
G02*
X156351000Y-48722500I0J250000D01*
G01*
X156351000Y-47797500D01*
G75*
G02*
X156601000Y-47547500I250000J0D01*
G01*
G37*
%TD.AperFunction*%
%TD*%
%TO.P,R9,2*%
%TO.N,Net-(R9-Pad2)*%
%TA.AperFunction,SMDPad,CuDef*%
G36*
G01*
X159141000Y-47547500D02*
X160391000Y-47547500D01*
G75*
G02*
X160641000Y-47797500I0J-250000D01*
G01*
X160641000Y-48722500D01*
G75*
G02*
X160391000Y-48972500I-250000J0D01*
G01*
X159141000Y-48972500D01*
G75*
G02*
X158891000Y-48722500I0J250000D01*
G01*
X158891000Y-47797500D01*
G75*
G02*
X159141000Y-47547500I250000J0D01*
G01*
G37*
%TD.AperFunction*%
%TO.P,R9,1*%
%TO.N,GND*%
%TA.AperFunction,SMDPad,CuDef*%
G36*
G01*
X159141000Y-44572500D02*
X160391000Y-44572500D01*
G75*
G02*
X160641000Y-44822500I0J-250000D01*
G01*
X160641000Y-45747500D01*
G75*
G02*
X160391000Y-45997500I-250000J0D01*
G01*
X159141000Y-45997500D01*
G75*
G02*
X158891000Y-45747500I0J250000D01*
G01*
X158891000Y-44822500D01*
G75*
G02*
X159141000Y-44572500I250000J0D01*
G01*
G37*
%TD.AperFunction*%
%TD*%
%TO.P,R10,1*%
%TO.N,Net-(D2-Pad1)*%
%TA.AperFunction,SMDPad,CuDef*%
G36*
G01*
X110373000Y-54224500D02*
X111623000Y-54224500D01*
G75*
G02*
X111873000Y-54474500I0J-250000D01*
G01*
X111873000Y-55399500D01*
G75*
G02*
X111623000Y-55649500I-250000J0D01*
G01*
X110373000Y-55649500D01*
G75*
G02*
X110123000Y-55399500I0J250000D01*
G01*
X110123000Y-54474500D01*
G75*
G02*
X110373000Y-54224500I250000J0D01*
G01*
G37*
%TD.AperFunction*%
%TO.P,R10,2*%
%TO.N,Net-(J2-Pad4)*%
%TA.AperFunction,SMDPad,CuDef*%
G36*
G01*
X110373000Y-57199500D02*
X111623000Y-57199500D01*
G75*
G02*
X111873000Y-57449500I0J-250000D01*
G01*
X111873000Y-58374500D01*
G75*
G02*
X111623000Y-58624500I-250000J0D01*
G01*
X110373000Y-58624500D01*
G75*
G02*
X110123000Y-58374500I0J250000D01*
G01*
X110123000Y-57449500D01*
G75*
G02*
X110373000Y-57199500I250000J0D01*
G01*
G37*
%TD.AperFunction*%
%TD*%
%TO.P,R11,2*%
%TO.N,Net-(J2-Pad5)*%
%TA.AperFunction,SMDPad,CuDef*%
G36*
G01*
X112913000Y-57199500D02*
X114163000Y-57199500D01*
G75*
G02*
X114413000Y-57449500I0J-250000D01*
G01*
X114413000Y-58374500D01*
G75*
G02*
X114163000Y-58624500I-250000J0D01*
G01*
X112913000Y-58624500D01*
G75*
G02*
X112663000Y-58374500I0J250000D01*
G01*
X112663000Y-57449500D01*
G75*
G02*
X112913000Y-57199500I250000J0D01*
G01*
G37*
%TD.AperFunction*%
%TO.P,R11,1*%
%TO.N,Net-(D2-Pad1)*%
%TA.AperFunction,SMDPad,CuDef*%
G36*
G01*
X112913000Y-54224500D02*
X114163000Y-54224500D01*
G75*
G02*
X114413000Y-54474500I0J-250000D01*
G01*
X114413000Y-55399500D01*
G75*
G02*
X114163000Y-55649500I-250000J0D01*
G01*
X112913000Y-55649500D01*
G75*
G02*
X112663000Y-55399500I0J250000D01*
G01*
X112663000Y-54474500D01*
G75*
G02*
X112913000Y-54224500I250000J0D01*
G01*
G37*
%TD.AperFunction*%
%TD*%
%TO.P,R12,1*%
%TO.N,Net-(D2-Pad1)*%
%TA.AperFunction,SMDPad,CuDef*%
G36*
G01*
X115453000Y-54224500D02*
X116703000Y-54224500D01*
G75*
G02*
X116953000Y-54474500I0J-250000D01*
G01*
X116953000Y-55399500D01*
G75*
G02*
X116703000Y-55649500I-250000J0D01*
G01*
X115453000Y-55649500D01*
G75*
G02*
X115203000Y-55399500I0J250000D01*
G01*
X115203000Y-54474500D01*
G75*
G02*
X115453000Y-54224500I250000J0D01*
G01*
G37*
%TD.AperFunction*%
%TO.P,R12,2*%
%TO.N,Net-(J2-Pad16)*%
%TA.AperFunction,SMDPad,CuDef*%
G36*
G01*
X115453000Y-57199500D02*
X116703000Y-57199500D01*
G75*
G02*
X116953000Y-57449500I0J-250000D01*
G01*
X116953000Y-58374500D01*
G75*
G02*
X116703000Y-58624500I-250000J0D01*
G01*
X115453000Y-58624500D01*
G75*
G02*
X115203000Y-58374500I0J250000D01*
G01*
X115203000Y-57449500D01*
G75*
G02*
X115453000Y-57199500I250000J0D01*
G01*
G37*
%TD.AperFunction*%
%TD*%
%TO.P,R13,2*%
%TO.N,Net-(J2-Pad17)*%
%TA.AperFunction,SMDPad,CuDef*%
G36*
G01*
X117993000Y-57199500D02*
X119243000Y-57199500D01*
G75*
G02*
X119493000Y-57449500I0J-250000D01*
G01*
X119493000Y-58374500D01*
G75*
G02*
X119243000Y-58624500I-250000J0D01*
G01*
X117993000Y-58624500D01*
G75*
G02*
X117743000Y-58374500I0J250000D01*
G01*
X117743000Y-57449500D01*
G75*
G02*
X117993000Y-57199500I250000J0D01*
G01*
G37*
%TD.AperFunction*%
%TO.P,R13,1*%
%TO.N,Net-(D2-Pad1)*%
%TA.AperFunction,SMDPad,CuDef*%
G36*
G01*
X117993000Y-54224500D02*
X119243000Y-54224500D01*
G75*
G02*
X119493000Y-54474500I0J-250000D01*
G01*
X119493000Y-55399500D01*
G75*
G02*
X119243000Y-55649500I-250000J0D01*
G01*
X117993000Y-55649500D01*
G75*
G02*
X117743000Y-55399500I0J250000D01*
G01*
X117743000Y-54474500D01*
G75*
G02*
X117993000Y-54224500I250000J0D01*
G01*
G37*
%TD.AperFunction*%
%TD*%
%TO.P,R14,2*%
%TO.N,Net-(J2-Pad18)*%
%TA.AperFunction,SMDPad,CuDef*%
G36*
G01*
X120533000Y-57199500D02*
X121783000Y-57199500D01*
G75*
G02*
X122033000Y-57449500I0J-250000D01*
G01*
X122033000Y-58374500D01*
G75*
G02*
X121783000Y-58624500I-250000J0D01*
G01*
X120533000Y-58624500D01*
G75*
G02*
X120283000Y-58374500I0J250000D01*
G01*
X120283000Y-57449500D01*
G75*
G02*
X120533000Y-57199500I250000J0D01*
G01*
G37*
%TD.AperFunction*%
%TO.P,R14,1*%
%TO.N,+5V*%
%TA.AperFunction,SMDPad,CuDef*%
G36*
G01*
X120533000Y-54224500D02*
X121783000Y-54224500D01*
G75*
G02*
X122033000Y-54474500I0J-250000D01*
G01*
X122033000Y-55399500D01*
G75*
G02*
X121783000Y-55649500I-250000J0D01*
G01*
X120533000Y-55649500D01*
G75*
G02*
X120283000Y-55399500I0J250000D01*
G01*
X120283000Y-54474500D01*
G75*
G02*
X120533000Y-54224500I250000J0D01*
G01*
G37*
%TD.AperFunction*%
%TD*%
%TO.P,R15,1*%
%TO.N,+5V*%
%TA.AperFunction,SMDPad,CuDef*%
G36*
G01*
X123073000Y-54224500D02*
X124323000Y-54224500D01*
G75*
G02*
X124573000Y-54474500I0J-250000D01*
G01*
X124573000Y-55399500D01*
G75*
G02*
X124323000Y-55649500I-250000J0D01*
G01*
X123073000Y-55649500D01*
G75*
G02*
X122823000Y-55399500I0J250000D01*
G01*
X122823000Y-54474500D01*
G75*
G02*
X123073000Y-54224500I250000J0D01*
G01*
G37*
%TD.AperFunction*%
%TO.P,R15,2*%
%TO.N,Net-(J2-Pad19)*%
%TA.AperFunction,SMDPad,CuDef*%
G36*
G01*
X123073000Y-57199500D02*
X124323000Y-57199500D01*
G75*
G02*
X124573000Y-57449500I0J-250000D01*
G01*
X124573000Y-58374500D01*
G75*
G02*
X124323000Y-58624500I-250000J0D01*
G01*
X123073000Y-58624500D01*
G75*
G02*
X122823000Y-58374500I0J250000D01*
G01*
X122823000Y-57449500D01*
G75*
G02*
X123073000Y-57199500I250000J0D01*
G01*
G37*
%TD.AperFunction*%
%TD*%
%TO.P,R16,1*%
%TO.N,+5V*%
%TA.AperFunction,SMDPad,CuDef*%
G36*
G01*
X125613000Y-54224500D02*
X126863000Y-54224500D01*
G75*
G02*
X127113000Y-54474500I0J-250000D01*
G01*
X127113000Y-55399500D01*
G75*
G02*
X126863000Y-55649500I-250000J0D01*
G01*
X125613000Y-55649500D01*
G75*
G02*
X125363000Y-55399500I0J250000D01*
G01*
X125363000Y-54474500D01*
G75*
G02*
X125613000Y-54224500I250000J0D01*
G01*
G37*
%TD.AperFunction*%
%TO.P,R16,2*%
%TO.N,Net-(J2-Pad38)*%
%TA.AperFunction,SMDPad,CuDef*%
G36*
G01*
X125613000Y-57199500D02*
X126863000Y-57199500D01*
G75*
G02*
X127113000Y-57449500I0J-250000D01*
G01*
X127113000Y-58374500D01*
G75*
G02*
X126863000Y-58624500I-250000J0D01*
G01*
X125613000Y-58624500D01*
G75*
G02*
X125363000Y-58374500I0J250000D01*
G01*
X125363000Y-57449500D01*
G75*
G02*
X125613000Y-57199500I250000J0D01*
G01*
G37*
%TD.AperFunction*%
%TD*%
%TO.P,R17,2*%
%TO.N,Net-(J2-Pad39)*%
%TA.AperFunction,SMDPad,CuDef*%
G36*
G01*
X128153000Y-57199500D02*
X129403000Y-57199500D01*
G75*
G02*
X129653000Y-57449500I0J-250000D01*
G01*
X129653000Y-58374500D01*
G75*
G02*
X129403000Y-58624500I-250000J0D01*
G01*
X128153000Y-58624500D01*
G75*
G02*
X127903000Y-58374500I0J250000D01*
G01*
X127903000Y-57449500D01*
G75*
G02*
X128153000Y-57199500I250000J0D01*
G01*
G37*
%TD.AperFunction*%
%TO.P,R17,1*%
%TO.N,+5V*%
%TA.AperFunction,SMDPad,CuDef*%
G36*
G01*
X128153000Y-54224500D02*
X129403000Y-54224500D01*
G75*
G02*
X129653000Y-54474500I0J-250000D01*
G01*
X129653000Y-55399500D01*
G75*
G02*
X129403000Y-55649500I-250000J0D01*
G01*
X128153000Y-55649500D01*
G75*
G02*
X127903000Y-55399500I0J250000D01*
G01*
X127903000Y-54474500D01*
G75*
G02*
X128153000Y-54224500I250000J0D01*
G01*
G37*
%TD.AperFunction*%
%TD*%
%TO.P,R18,1*%
%TO.N,Net-(J2-Pad18)*%
%TA.AperFunction,SMDPad,CuDef*%
G36*
G01*
X120533000Y-62787500D02*
X121783000Y-62787500D01*
G75*
G02*
X122033000Y-63037500I0J-250000D01*
G01*
X122033000Y-63962500D01*
G75*
G02*
X121783000Y-64212500I-250000J0D01*
G01*
X120533000Y-64212500D01*
G75*
G02*
X120283000Y-63962500I0J250000D01*
G01*
X120283000Y-63037500D01*
G75*
G02*
X120533000Y-62787500I250000J0D01*
G01*
G37*
%TD.AperFunction*%
%TO.P,R18,2*%
%TO.N,+5V*%
%TA.AperFunction,SMDPad,CuDef*%
G36*
G01*
X120533000Y-65762500D02*
X121783000Y-65762500D01*
G75*
G02*
X122033000Y-66012500I0J-250000D01*
G01*
X122033000Y-66937500D01*
G75*
G02*
X121783000Y-67187500I-250000J0D01*
G01*
X120533000Y-67187500D01*
G75*
G02*
X120283000Y-66937500I0J250000D01*
G01*
X120283000Y-66012500D01*
G75*
G02*
X120533000Y-65762500I250000J0D01*
G01*
G37*
%TD.AperFunction*%
%TD*%
%TO.P,R19,2*%
%TO.N,+5V*%
%TA.AperFunction,SMDPad,CuDef*%
G36*
G01*
X123073000Y-65762500D02*
X124323000Y-65762500D01*
G75*
G02*
X124573000Y-66012500I0J-250000D01*
G01*
X124573000Y-66937500D01*
G75*
G02*
X124323000Y-67187500I-250000J0D01*
G01*
X123073000Y-67187500D01*
G75*
G02*
X122823000Y-66937500I0J250000D01*
G01*
X122823000Y-66012500D01*
G75*
G02*
X123073000Y-65762500I250000J0D01*
G01*
G37*
%TD.AperFunction*%
%TO.P,R19,1*%
%TO.N,Net-(J2-Pad19)*%
%TA.AperFunction,SMDPad,CuDef*%
G36*
G01*
X123073000Y-62787500D02*
X124323000Y-62787500D01*
G75*
G02*
X124573000Y-63037500I0J-250000D01*
G01*
X124573000Y-63962500D01*
G75*
G02*
X124323000Y-64212500I-250000J0D01*
G01*
X123073000Y-64212500D01*
G75*
G02*
X122823000Y-63962500I0J250000D01*
G01*
X122823000Y-63037500D01*
G75*
G02*
X123073000Y-62787500I250000J0D01*
G01*
G37*
%TD.AperFunction*%
%TD*%
%TO.P,R20,1*%
%TO.N,Net-(J2-Pad38)*%
%TA.AperFunction,SMDPad,CuDef*%
G36*
G01*
X125613000Y-62787500D02*
X126863000Y-62787500D01*
G75*
G02*
X127113000Y-63037500I0J-250000D01*
G01*
X127113000Y-63962500D01*
G75*
G02*
X126863000Y-64212500I-250000J0D01*
G01*
X125613000Y-64212500D01*
G75*
G02*
X125363000Y-63962500I0J250000D01*
G01*
X125363000Y-63037500D01*
G75*
G02*
X125613000Y-62787500I250000J0D01*
G01*
G37*
%TD.AperFunction*%
%TO.P,R20,2*%
%TO.N,+5V*%
%TA.AperFunction,SMDPad,CuDef*%
G36*
G01*
X125613000Y-65762500D02*
X126863000Y-65762500D01*
G75*
G02*
X127113000Y-66012500I0J-250000D01*
G01*
X127113000Y-66937500D01*
G75*
G02*
X126863000Y-67187500I-250000J0D01*
G01*
X125613000Y-67187500D01*
G75*
G02*
X125363000Y-66937500I0J250000D01*
G01*
X125363000Y-66012500D01*
G75*
G02*
X125613000Y-65762500I250000J0D01*
G01*
G37*
%TD.AperFunction*%
%TD*%
%TO.P,R21,2*%
%TO.N,+5V*%
%TA.AperFunction,SMDPad,CuDef*%
G36*
G01*
X128153000Y-65762500D02*
X129403000Y-65762500D01*
G75*
G02*
X129653000Y-66012500I0J-250000D01*
G01*
X129653000Y-66937500D01*
G75*
G02*
X129403000Y-67187500I-250000J0D01*
G01*
X128153000Y-67187500D01*
G75*
G02*
X127903000Y-66937500I0J250000D01*
G01*
X127903000Y-66012500D01*
G75*
G02*
X128153000Y-65762500I250000J0D01*
G01*
G37*
%TD.AperFunction*%
%TO.P,R21,1*%
%TO.N,Net-(J2-Pad39)*%
%TA.AperFunction,SMDPad,CuDef*%
G36*
G01*
X128153000Y-62787500D02*
X129403000Y-62787500D01*
G75*
G02*
X129653000Y-63037500I0J-250000D01*
G01*
X129653000Y-63962500D01*
G75*
G02*
X129403000Y-64212500I-250000J0D01*
G01*
X128153000Y-64212500D01*
G75*
G02*
X127903000Y-63962500I0J250000D01*
G01*
X127903000Y-63037500D01*
G75*
G02*
X128153000Y-62787500I250000J0D01*
G01*
G37*
%TD.AperFunction*%
%TD*%
D18*
%TO.P,D1,2*%
%TO.N,+5V*%
X135128000Y-50380000D03*
%TO.P,D1,1*%
%TO.N,Net-(D1-Pad1)*%
X135128000Y-55880000D03*
%TD*%
%TO.P,D2,1*%
%TO.N,Net-(D2-Pad1)*%
X135128000Y-66206000D03*
%TO.P,D2,2*%
%TO.N,Net-(D1-Pad1)*%
X135128000Y-60706000D03*
%TD*%
D19*
%TO.N,+5V*%
X131318000Y-50292000D03*
X131318000Y-68834000D03*
%TO.N,Net-(J2-Pad2)*%
X147572002Y-70610002D03*
X140209998Y-70610002D03*
%TO.N,Net-(J2-Pad4)*%
X126746000Y-68834000D03*
X110236000Y-65024000D03*
%TO.N,Net-(J2-Pad5)*%
X124460000Y-68834000D03*
X111505992Y-66040000D03*
%TO.N,Net-(J2-Pad13)*%
X137741000Y-45285000D03*
%TO.N,Net-(J2-Pad17)*%
X117094000Y-75438000D03*
X117094000Y-68072000D03*
%TO.N,Net-(J2-Pad18)*%
X115823992Y-70104000D03*
X115823984Y-75438000D03*
%TO.N,Net-(J2-Pad22)*%
X151406010Y-72367990D03*
X142008010Y-72367990D03*
%TO.N,Net-(J2-Pad24)*%
X117741001Y-87261001D03*
%TO.N,Net-(J2-Pad38)*%
X107950000Y-62992000D03*
%TO.N,Net-(J2-Pad39)*%
X108966000Y-64008000D03*
%TD*%
D20*
%TO.N,+5V*%
X108712000Y-50292000D02*
X103886000Y-55118000D01*
X128778000Y-54937000D02*
X130991000Y-54937000D01*
X132334000Y-53594000D02*
X132334000Y-50292000D01*
X130991000Y-54937000D02*
X132334000Y-53594000D01*
X132334000Y-50292000D02*
X131318000Y-50292000D01*
X128778000Y-54937000D02*
X126238000Y-54937000D01*
X126238000Y-54937000D02*
X123698000Y-54937000D01*
X123698000Y-54937000D02*
X121158000Y-54937000D01*
X121158000Y-66475000D02*
X123698000Y-66475000D01*
X123698000Y-66475000D02*
X126238000Y-66475000D01*
X126238000Y-66475000D02*
X128778000Y-66475000D01*
X131318000Y-50292000D02*
X108712000Y-50292000D01*
X130737000Y-66475000D02*
X128778000Y-66475000D01*
X131318000Y-67056000D02*
X130737000Y-66475000D01*
X131318000Y-68834000D02*
X131318000Y-67056000D01*
X135040000Y-50292000D02*
X135128000Y-50380000D01*
X132334000Y-50292000D02*
X135040000Y-50292000D01*
%TO.N,Net-(D1-Pad1)*%
X135128000Y-55880000D02*
X135128000Y-60706000D01*
%TO.N,Net-(D2-Pad1)*%
X118618000Y-54937000D02*
X116078000Y-54937000D01*
X116078000Y-54937000D02*
X113538000Y-54937000D01*
X113538000Y-54937000D02*
X110998000Y-54937000D01*
X120106264Y-56425264D02*
X118618000Y-54937000D01*
X134532000Y-66206000D02*
X132334000Y-64008000D01*
X130048000Y-56425264D02*
X120106264Y-56425264D01*
X135128000Y-66206000D02*
X134532000Y-66206000D01*
X132334000Y-58711264D02*
X130048000Y-56425264D01*
X132334000Y-64008000D02*
X132334000Y-58711264D01*
%TO.N,Net-(D3-Pad1)*%
X103378000Y-45466000D02*
X108023000Y-45466000D01*
%TO.N,GND*%
X103886000Y-60198000D02*
X107188000Y-56896000D01*
X107188000Y-56896000D02*
X107188000Y-54610000D01*
X109220000Y-52578000D02*
X110998000Y-52578000D01*
X107188000Y-54610000D02*
X109220000Y-52578000D01*
X110998000Y-52578000D02*
X113538000Y-52578000D01*
X113538000Y-52578000D02*
X116078000Y-52578000D01*
X116078000Y-52578000D02*
X118618000Y-52578000D01*
X118618000Y-52578000D02*
X121158000Y-52578000D01*
X121158000Y-52578000D02*
X123698000Y-52578000D01*
X123698000Y-52578000D02*
X126238000Y-52578000D01*
X126238000Y-52578000D02*
X128778000Y-52578000D01*
X116332000Y-47752000D02*
X120396000Y-43688000D01*
X159766000Y-43688000D02*
X159766000Y-45285000D01*
X157226000Y-45285000D02*
X157226000Y-43688000D01*
X157226000Y-43688000D02*
X159766000Y-43688000D01*
X154686000Y-45285000D02*
X154686000Y-43688000D01*
X154686000Y-43688000D02*
X157226000Y-43688000D01*
X120396000Y-43688000D02*
X152146000Y-43688000D01*
X152146000Y-45285000D02*
X152146000Y-43688000D01*
X152146000Y-43688000D02*
X154686000Y-43688000D01*
X110998000Y-45466000D02*
X110998000Y-47752000D01*
X110998000Y-47752000D02*
X116332000Y-47752000D01*
X102616000Y-47752000D02*
X110998000Y-47752000D01*
X100838000Y-49530000D02*
X102616000Y-47752000D01*
X100838000Y-59436000D02*
X100838000Y-49530000D01*
X103886000Y-60198000D02*
X101600000Y-60198000D01*
X101600000Y-60198000D02*
X100838000Y-59436000D01*
%TO.N,Net-(J2-Pad2)*%
X144526000Y-60198000D02*
X145796000Y-61468000D01*
X147572002Y-61468000D02*
X148336000Y-60704002D01*
X145796000Y-61468000D02*
X147572002Y-61468000D01*
X149029999Y-58997999D02*
X153485999Y-58997999D01*
X148336000Y-60704002D02*
X148336000Y-59691998D01*
X148336000Y-59691998D02*
X149029999Y-58997999D01*
X153485999Y-58997999D02*
X154686000Y-60198000D01*
X147572002Y-61468000D02*
X147572002Y-70610002D01*
X147572002Y-70610002D02*
X147572002Y-70610002D01*
X135917501Y-80943501D02*
X136000000Y-81026000D01*
X140209998Y-70610002D02*
X135917501Y-74902499D01*
X135917501Y-74902499D02*
X135917501Y-80943501D01*
%TO.N,Net-(J2-Pad3)*%
X141986000Y-60198000D02*
X141986000Y-67310000D01*
X134730000Y-74566000D02*
X134730000Y-79121000D01*
X141986000Y-67310000D02*
X134730000Y-74566000D01*
X152146000Y-60198000D02*
X153346001Y-61398001D01*
X153346001Y-61398001D02*
X157802001Y-61398001D01*
X158426001Y-60774001D02*
X158426001Y-59621999D01*
X157802001Y-61398001D02*
X158426001Y-60774001D01*
X158426001Y-59621999D02*
X156601981Y-57797979D01*
X141986000Y-59066630D02*
X141986000Y-60198000D01*
X143254651Y-57797979D02*
X141986000Y-59066630D01*
X156601981Y-57797979D02*
X143254651Y-57797979D01*
%TO.N,Net-(J2-Pad4)*%
X110998000Y-57912000D02*
X110998000Y-60198000D01*
X126746000Y-68834000D02*
X129286000Y-68834000D01*
X133542499Y-80943501D02*
X133460000Y-81026000D01*
X133542499Y-73090499D02*
X133542499Y-80943501D01*
X129286000Y-68834000D02*
X133542499Y-73090499D01*
X110998000Y-60198000D02*
X110998000Y-64262000D01*
X110998000Y-64262000D02*
X110236000Y-65024000D01*
%TO.N,Net-(J2-Pad5)*%
X113538000Y-57912000D02*
X113538000Y-60198000D01*
X124460000Y-68834000D02*
X125984000Y-70358000D01*
X125984000Y-70358000D02*
X129032000Y-70358000D01*
X132190000Y-73516000D02*
X132190000Y-79121000D01*
X129032000Y-70358000D02*
X132190000Y-73516000D01*
X113538000Y-60198000D02*
X113538000Y-64007992D01*
X113538000Y-64007992D02*
X111505992Y-66040000D01*
%TO.N,Net-(J2-Pad13)*%
X149606000Y-45285000D02*
X147066000Y-45285000D01*
X147066000Y-45285000D02*
X144526000Y-45285000D01*
X144526000Y-45285000D02*
X141986000Y-45285000D01*
X141986000Y-45285000D02*
X137741000Y-45285000D01*
X137741000Y-45285000D02*
X137741000Y-45285000D01*
X127110000Y-79121000D02*
X127110000Y-77326000D01*
X127110000Y-77326000D02*
X126492000Y-76708000D01*
X126492000Y-76708000D02*
X122682000Y-76708000D01*
X122030000Y-77360000D02*
X122030000Y-79121000D01*
X122682000Y-76708000D02*
X122030000Y-77360000D01*
X127110000Y-77326000D02*
X127144000Y-77326000D01*
X127144000Y-77326000D02*
X127762000Y-76708000D01*
X127762000Y-76708000D02*
X130302000Y-76708000D01*
X130920000Y-77326000D02*
X130302000Y-76708000D01*
X130920000Y-81026000D02*
X130920000Y-77326000D01*
%TO.N,Net-(J2-Pad16)*%
X116078000Y-57912000D02*
X116078000Y-60198000D01*
X118137501Y-80943501D02*
X118220000Y-81026000D01*
X116078000Y-60198000D02*
X116078000Y-66802000D01*
X114554000Y-68326000D02*
X114554000Y-71120000D01*
X116078000Y-66802000D02*
X114554000Y-68326000D01*
X114554000Y-71120000D02*
X118137501Y-74703501D01*
X118137501Y-74703501D02*
X118137501Y-80943501D01*
%TO.N,Net-(J2-Pad17)*%
X118618000Y-57912000D02*
X118618000Y-60198000D01*
X117094000Y-78977000D02*
X116950000Y-79121000D01*
X117094000Y-75438000D02*
X117094000Y-78977000D01*
X117094000Y-61722000D02*
X117094000Y-68072000D01*
X118618000Y-60198000D02*
X117094000Y-61722000D01*
%TO.N,Net-(J2-Pad18)*%
X121158000Y-57912000D02*
X121158000Y-60198000D01*
X121158000Y-60198000D02*
X121158000Y-63500000D01*
X115824000Y-70104000D02*
X115824000Y-70104000D01*
X116389677Y-70104000D02*
X115823992Y-70104000D01*
X118872000Y-67621677D02*
X116389677Y-70104000D01*
X121158000Y-63500000D02*
X118872000Y-65786000D01*
X118872000Y-65786000D02*
X118872000Y-67621677D01*
X115680000Y-81026000D02*
X115680000Y-75581984D01*
X115680000Y-75581984D02*
X115823984Y-75438000D01*
%TO.N,Net-(J2-Pad19)*%
X123698000Y-57912000D02*
X123698000Y-60198000D01*
X123698000Y-60198000D02*
X123698000Y-63500000D01*
%TO.N,Net-(J2-Pad22)*%
X159165990Y-61998010D02*
X159766000Y-61398000D01*
X159766000Y-61398000D02*
X159766000Y-60198000D01*
X151406010Y-61998010D02*
X159165990Y-61998010D01*
X149606000Y-60198000D02*
X151406010Y-61998010D01*
X151406010Y-61998010D02*
X151406010Y-72367990D01*
X151406010Y-72367990D02*
X151406010Y-72367990D01*
X142008010Y-79950492D02*
X137122502Y-84836000D01*
X137122502Y-84836000D02*
X136000000Y-84836000D01*
X142008010Y-72367990D02*
X142008010Y-79950492D01*
%TO.N,Net-(J2-Pad23)*%
X147066000Y-59066630D02*
X147066000Y-60198000D01*
X147734641Y-58397989D02*
X147066000Y-59066630D01*
X155425989Y-58397989D02*
X147734641Y-58397989D01*
X157226000Y-60198000D02*
X155425989Y-58397989D01*
X143256000Y-59691998D02*
X143256000Y-73152000D01*
X143256000Y-73152000D02*
X144272000Y-74168000D01*
X136667499Y-87261001D02*
X134730000Y-85323502D01*
X142134001Y-87261001D02*
X136667499Y-87261001D01*
X134730000Y-85323502D02*
X134730000Y-82931000D01*
X144272000Y-85123002D02*
X142134001Y-87261001D01*
X144272000Y-74168000D02*
X144272000Y-85123002D01*
X143256000Y-59691998D02*
X144527998Y-58420000D01*
X146419370Y-58420000D02*
X147066000Y-59066630D01*
X144527998Y-58420000D02*
X146419370Y-58420000D01*
%TO.N,Net-(J2-Pad24)*%
X130920000Y-84836000D02*
X133460000Y-84836000D01*
X130920000Y-84836000D02*
X128494999Y-87261001D01*
X116867501Y-83013499D02*
X116950000Y-82931000D01*
X116867501Y-86387501D02*
X116867501Y-83013499D01*
X117741001Y-87261001D02*
X117741001Y-87261001D01*
X122030000Y-87232000D02*
X122059001Y-87261001D01*
X122030000Y-82931000D02*
X122030000Y-87232000D01*
X122059001Y-87261001D02*
X117741001Y-87261001D01*
X127110000Y-87232000D02*
X127139001Y-87261001D01*
X127110000Y-82931000D02*
X127110000Y-87232000D01*
X128494999Y-87261001D02*
X127139001Y-87261001D01*
X127139001Y-87261001D02*
X122059001Y-87261001D01*
X117741001Y-87261001D02*
X116867501Y-86387501D01*
%TO.N,Net-(J2-Pad38)*%
X126238000Y-57912000D02*
X126238000Y-60198000D01*
X126238000Y-60198000D02*
X126238000Y-63500000D01*
X115680000Y-86504000D02*
X115680000Y-84836000D01*
X108204000Y-87376000D02*
X114808000Y-87376000D01*
X107950000Y-82296000D02*
X106680000Y-83566000D01*
X107950000Y-62992000D02*
X107950000Y-82296000D01*
X106680000Y-83566000D02*
X106680000Y-85852000D01*
X114808000Y-87376000D02*
X115680000Y-86504000D01*
X106680000Y-85852000D02*
X108204000Y-87376000D01*
%TO.N,Net-(J2-Pad39)*%
X128778000Y-57912000D02*
X128778000Y-60198000D01*
X128778000Y-60198000D02*
X128778000Y-63500000D01*
X108966000Y-64008000D02*
X108966000Y-79756000D01*
X112141000Y-82931000D02*
X114410000Y-82931000D01*
X108966000Y-79756000D02*
X112141000Y-82931000D01*
%TO.N,Net-(R2-Pad2)*%
X141986000Y-48260000D02*
X141986000Y-52578000D01*
%TO.N,Net-(R3-Pad2)*%
X144526000Y-48260000D02*
X144526000Y-52578000D01*
%TO.N,Net-(R4-Pad2)*%
X147066000Y-48260000D02*
X147066000Y-52578000D01*
%TO.N,Net-(R5-Pad2)*%
X149606000Y-48260000D02*
X149606000Y-52578000D01*
%TO.N,Net-(R6-Pad2)*%
X152146000Y-48260000D02*
X152146000Y-52578000D01*
%TO.N,Net-(R7-Pad2)*%
X154686000Y-48260000D02*
X154686000Y-52578000D01*
%TO.N,Net-(R8-Pad2)*%
X157226000Y-48260000D02*
X157226000Y-52578000D01*
%TO.N,Net-(R9-Pad2)*%
X159766000Y-48260000D02*
X159766000Y-52578000D01*
%TD*%
M02*
