M48
; DRILL file {KiCad (5.1.6)-1} date 03/31/21 13:13:53
; FORMAT={-:-/ absolute / inch / decimal}
; #@! TF.CreationDate,2021-03-31T13:13:53-04:00
; #@! TF.GenerationSoftware,Kicad,Pcbnew,(5.1.6)-1
FMAT,2
INCH
T1C0.0157
T2C0.0315
T3C0.0354
T4C0.0413
T5C0.0728
T6C0.1063
%
G90
G05
T1
X4.25Y-2.48
X4.29Y-2.52
X4.34Y-2.56
X4.39Y-2.6
X4.56Y-2.97
X4.56Y-2.76
X4.61Y-2.68
X4.61Y-2.97
X4.6355Y-3.4355
X4.9Y-2.71
X4.99Y-2.71
X5.17Y-1.98
X5.17Y-2.71
X5.4229Y-1.7829
X5.5201Y-2.7799
X5.5909Y-2.8491
X5.8099Y-2.7799
X5.9609Y-2.8491
T2
X4.37Y-2.07
X4.37Y-2.37
X4.47Y-2.07
X4.47Y-2.37
X4.57Y-2.07
X4.57Y-2.37
X4.67Y-2.07
X4.67Y-2.37
X4.77Y-2.07
X4.77Y-2.37
X4.87Y-2.07
X4.87Y-2.37
X4.97Y-2.07
X4.97Y-2.37
X5.07Y-2.07
X5.07Y-2.37
X5.59Y-2.07
X5.59Y-2.37
X5.69Y-2.07
X5.69Y-2.37
X5.79Y-2.07
X5.79Y-2.37
X5.89Y-2.07
X5.89Y-2.37
X5.99Y-2.07
X5.99Y-2.37
X6.09Y-2.07
X6.09Y-2.37
X6.19Y-2.07
X6.19Y-2.37
X6.29Y-2.07
X6.29Y-2.37
T3
X3.97Y-1.79
X4.07Y-1.79
T4
X4.4543Y-3.19
X4.4543Y-3.34
X4.5043Y-3.115
X4.5043Y-3.265
X4.5543Y-3.19
X4.5543Y-3.34
X4.6043Y-3.115
X4.6043Y-3.265
X4.6543Y-3.19
X4.6543Y-3.34
X4.7043Y-3.115
X4.7043Y-3.265
X4.7543Y-3.19
X4.7543Y-3.34
X4.8043Y-3.115
X4.8043Y-3.265
X4.8543Y-3.19
X4.8543Y-3.34
X4.9043Y-3.115
X4.9043Y-3.265
X4.9543Y-3.19
X4.9543Y-3.34
X5.0043Y-3.115
X5.0043Y-3.265
X5.0543Y-3.19
X5.0543Y-3.34
X5.1043Y-3.115
X5.1043Y-3.265
X5.1543Y-3.19
X5.1543Y-3.34
X5.2043Y-3.115
X5.2043Y-3.265
X5.2543Y-3.19
X5.2543Y-3.34
X5.3043Y-3.115
X5.3043Y-3.265
X5.3543Y-3.19
X5.3543Y-3.34
X5.4043Y-3.115
X5.4043Y-3.265
T5
X4.09Y-2.17
X4.09Y-2.37
X4.09Y-2.57
X4.09Y-2.77
T6
X4.3087Y-3.34
X5.55Y-3.34
T0
M30
