%TF.GenerationSoftware,KiCad,Pcbnew,(5.1.6)-1*%
%TF.CreationDate,2021-03-31T13:13:51-04:00*%
%TF.ProjectId,Freespeed-Clone,46726565-7370-4656-9564-2d436c6f6e65,rev?*%
%TF.SameCoordinates,Original*%
%TF.FileFunction,Legend,Top*%
%TF.FilePolarity,Positive*%
%FSLAX46Y46*%
G04 Gerber Fmt 4.6, Leading zero omitted, Abs format (unit mm)*
G04 Created by KiCad (PCBNEW (5.1.6)-1) date 2021-03-31 13:13:51*
%MOMM*%
%LPD*%
G01*
G04 APERTURE LIST*
%ADD10C,0.150000*%
%ADD11C,0.120000*%
%ADD12C,0.200000*%
%ADD13C,0.254000*%
G04 APERTURE END LIST*
D10*
X149360666Y-86399714D02*
X149551142Y-87066380D01*
X149741619Y-86590190D01*
X149932095Y-87066380D01*
X150122571Y-86399714D01*
X150503523Y-87066380D02*
X150503523Y-86399714D01*
X150503523Y-86066380D02*
X150455904Y-86114000D01*
X150503523Y-86161619D01*
X150551142Y-86114000D01*
X150503523Y-86066380D01*
X150503523Y-86161619D01*
X150979714Y-87066380D02*
X150979714Y-86399714D01*
X150979714Y-86590190D02*
X151027333Y-86494952D01*
X151074952Y-86447333D01*
X151170190Y-86399714D01*
X151265428Y-86399714D01*
X151979714Y-87018761D02*
X151884476Y-87066380D01*
X151694000Y-87066380D01*
X151598761Y-87018761D01*
X151551142Y-86923523D01*
X151551142Y-86542571D01*
X151598761Y-86447333D01*
X151694000Y-86399714D01*
X151884476Y-86399714D01*
X151979714Y-86447333D01*
X152027333Y-86542571D01*
X152027333Y-86637809D01*
X151551142Y-86733047D01*
X152313047Y-86399714D02*
X152694000Y-86399714D01*
X152455904Y-86066380D02*
X152455904Y-86923523D01*
X152503523Y-87018761D01*
X152598761Y-87066380D01*
X152694000Y-87066380D01*
X153455904Y-87066380D02*
X153455904Y-86542571D01*
X153408285Y-86447333D01*
X153313047Y-86399714D01*
X153122571Y-86399714D01*
X153027333Y-86447333D01*
X153455904Y-87018761D02*
X153360666Y-87066380D01*
X153122571Y-87066380D01*
X153027333Y-87018761D01*
X152979714Y-86923523D01*
X152979714Y-86828285D01*
X153027333Y-86733047D01*
X153122571Y-86685428D01*
X153360666Y-86685428D01*
X153455904Y-86637809D01*
X153932095Y-86399714D02*
X153932095Y-87399714D01*
X153932095Y-86447333D02*
X154027333Y-86399714D01*
X154217809Y-86399714D01*
X154313047Y-86447333D01*
X154360666Y-86494952D01*
X154408285Y-86590190D01*
X154408285Y-86875904D01*
X154360666Y-86971142D01*
X154313047Y-87018761D01*
X154217809Y-87066380D01*
X154027333Y-87066380D01*
X153932095Y-87018761D01*
X155598761Y-86685428D02*
X156360666Y-86685428D01*
X157551142Y-86161619D02*
X157598761Y-86114000D01*
X157694000Y-86066380D01*
X157932095Y-86066380D01*
X158027333Y-86114000D01*
X158074952Y-86161619D01*
X158122571Y-86256857D01*
X158122571Y-86352095D01*
X158074952Y-86494952D01*
X157503523Y-87066380D01*
X158122571Y-87066380D01*
X158741619Y-86066380D02*
X158836857Y-86066380D01*
X158932095Y-86114000D01*
X158979714Y-86161619D01*
X159027333Y-86256857D01*
X159074952Y-86447333D01*
X159074952Y-86685428D01*
X159027333Y-86875904D01*
X158979714Y-86971142D01*
X158932095Y-87018761D01*
X158836857Y-87066380D01*
X158741619Y-87066380D01*
X158646380Y-87018761D01*
X158598761Y-86971142D01*
X158551142Y-86875904D01*
X158503523Y-86685428D01*
X158503523Y-86447333D01*
X158551142Y-86256857D01*
X158598761Y-86161619D01*
X158646380Y-86114000D01*
X158741619Y-86066380D01*
X159455904Y-86161619D02*
X159503523Y-86114000D01*
X159598761Y-86066380D01*
X159836857Y-86066380D01*
X159932095Y-86114000D01*
X159979714Y-86161619D01*
X160027333Y-86256857D01*
X160027333Y-86352095D01*
X159979714Y-86494952D01*
X159408285Y-87066380D01*
X160027333Y-87066380D01*
X160979714Y-87066380D02*
X160408285Y-87066380D01*
X160694000Y-87066380D02*
X160694000Y-86066380D01*
X160598761Y-86209238D01*
X160503523Y-86304476D01*
X160408285Y-86352095D01*
X124306000Y-45819142D02*
X124520285Y-45890571D01*
X124877428Y-45890571D01*
X125020285Y-45819142D01*
X125091714Y-45747714D01*
X125163142Y-45604857D01*
X125163142Y-45462000D01*
X125091714Y-45319142D01*
X125020285Y-45247714D01*
X124877428Y-45176285D01*
X124591714Y-45104857D01*
X124448857Y-45033428D01*
X124377428Y-44962000D01*
X124306000Y-44819142D01*
X124306000Y-44676285D01*
X124377428Y-44533428D01*
X124448857Y-44462000D01*
X124591714Y-44390571D01*
X124948857Y-44390571D01*
X125163142Y-44462000D01*
X126020285Y-45890571D02*
X125877428Y-45819142D01*
X125806000Y-45747714D01*
X125734571Y-45604857D01*
X125734571Y-45176285D01*
X125806000Y-45033428D01*
X125877428Y-44962000D01*
X126020285Y-44890571D01*
X126234571Y-44890571D01*
X126377428Y-44962000D01*
X126448857Y-45033428D01*
X126520285Y-45176285D01*
X126520285Y-45604857D01*
X126448857Y-45747714D01*
X126377428Y-45819142D01*
X126234571Y-45890571D01*
X126020285Y-45890571D01*
X127377428Y-45890571D02*
X127234571Y-45819142D01*
X127163142Y-45676285D01*
X127163142Y-44390571D01*
X128591714Y-45890571D02*
X128591714Y-44390571D01*
X128591714Y-45819142D02*
X128448857Y-45890571D01*
X128163142Y-45890571D01*
X128020285Y-45819142D01*
X127948857Y-45747714D01*
X127877428Y-45604857D01*
X127877428Y-45176285D01*
X127948857Y-45033428D01*
X128020285Y-44962000D01*
X128163142Y-44890571D01*
X128448857Y-44890571D01*
X128591714Y-44962000D01*
X129877428Y-45819142D02*
X129734571Y-45890571D01*
X129448857Y-45890571D01*
X129306000Y-45819142D01*
X129234571Y-45676285D01*
X129234571Y-45104857D01*
X129306000Y-44962000D01*
X129448857Y-44890571D01*
X129734571Y-44890571D01*
X129877428Y-44962000D01*
X129948857Y-45104857D01*
X129948857Y-45247714D01*
X129234571Y-45390571D01*
X130591714Y-45890571D02*
X130591714Y-44890571D01*
X130591714Y-45176285D02*
X130663142Y-45033428D01*
X130734571Y-44962000D01*
X130877428Y-44890571D01*
X131020285Y-44890571D01*
X132591714Y-45819142D02*
X132806000Y-45890571D01*
X133163142Y-45890571D01*
X133306000Y-45819142D01*
X133377428Y-45747714D01*
X133448857Y-45604857D01*
X133448857Y-45462000D01*
X133377428Y-45319142D01*
X133306000Y-45247714D01*
X133163142Y-45176285D01*
X132877428Y-45104857D01*
X132734571Y-45033428D01*
X132663142Y-44962000D01*
X132591714Y-44819142D01*
X132591714Y-44676285D01*
X132663142Y-44533428D01*
X132734571Y-44462000D01*
X132877428Y-44390571D01*
X133234571Y-44390571D01*
X133448857Y-44462000D01*
X134091714Y-45890571D02*
X134091714Y-44890571D01*
X134091714Y-44390571D02*
X134020285Y-44462000D01*
X134091714Y-44533428D01*
X134163142Y-44462000D01*
X134091714Y-44390571D01*
X134091714Y-44533428D01*
X135448857Y-45890571D02*
X135448857Y-44390571D01*
X135448857Y-45819142D02*
X135306000Y-45890571D01*
X135020285Y-45890571D01*
X134877428Y-45819142D01*
X134806000Y-45747714D01*
X134734571Y-45604857D01*
X134734571Y-45176285D01*
X134806000Y-45033428D01*
X134877428Y-44962000D01*
X135020285Y-44890571D01*
X135306000Y-44890571D01*
X135448857Y-44962000D01*
X136734571Y-45819142D02*
X136591714Y-45890571D01*
X136306000Y-45890571D01*
X136163142Y-45819142D01*
X136091714Y-45676285D01*
X136091714Y-45104857D01*
X136163142Y-44962000D01*
X136306000Y-44890571D01*
X136591714Y-44890571D01*
X136734571Y-44962000D01*
X136806000Y-45104857D01*
X136806000Y-45247714D01*
X136091714Y-45390571D01*
D11*
%TO.C,R1*%
X110112564Y-44556000D02*
X108908436Y-44556000D01*
X110112564Y-46376000D02*
X108908436Y-46376000D01*
D12*
%TO.C,J1*%
X108026000Y-70358000D02*
X108026000Y-51108000D01*
X108026000Y-51108000D02*
X99746000Y-51108000D01*
X99746000Y-51108000D02*
X99746000Y-74368000D01*
X99746000Y-74368000D02*
X103886000Y-74368000D01*
D11*
%TO.C,R2*%
X142896000Y-46170436D02*
X142896000Y-47374564D01*
X141076000Y-46170436D02*
X141076000Y-47374564D01*
%TO.C,R3*%
X143616000Y-46170436D02*
X143616000Y-47374564D01*
X145436000Y-46170436D02*
X145436000Y-47374564D01*
%TO.C,R4*%
X147976000Y-46170436D02*
X147976000Y-47374564D01*
X146156000Y-46170436D02*
X146156000Y-47374564D01*
%TO.C,R5*%
X148696000Y-46170436D02*
X148696000Y-47374564D01*
X150516000Y-46170436D02*
X150516000Y-47374564D01*
%TO.C,R6*%
X153056000Y-46170436D02*
X153056000Y-47374564D01*
X151236000Y-46170436D02*
X151236000Y-47374564D01*
%TO.C,R7*%
X153776000Y-46170436D02*
X153776000Y-47374564D01*
X155596000Y-46170436D02*
X155596000Y-47374564D01*
%TO.C,R8*%
X158136000Y-46170436D02*
X158136000Y-47374564D01*
X156316000Y-46170436D02*
X156316000Y-47374564D01*
%TO.C,R9*%
X158856000Y-46170436D02*
X158856000Y-47374564D01*
X160676000Y-46170436D02*
X160676000Y-47374564D01*
%TO.C,R10*%
X111908000Y-55822436D02*
X111908000Y-57026564D01*
X110088000Y-55822436D02*
X110088000Y-57026564D01*
%TO.C,R11*%
X112628000Y-55822436D02*
X112628000Y-57026564D01*
X114448000Y-55822436D02*
X114448000Y-57026564D01*
%TO.C,R12*%
X116988000Y-55822436D02*
X116988000Y-57026564D01*
X115168000Y-55822436D02*
X115168000Y-57026564D01*
%TO.C,R13*%
X117708000Y-55822436D02*
X117708000Y-57026564D01*
X119528000Y-55822436D02*
X119528000Y-57026564D01*
%TO.C,R14*%
X120248000Y-55822436D02*
X120248000Y-57026564D01*
X122068000Y-55822436D02*
X122068000Y-57026564D01*
%TO.C,R15*%
X124608000Y-55822436D02*
X124608000Y-57026564D01*
X122788000Y-55822436D02*
X122788000Y-57026564D01*
%TO.C,R16*%
X127148000Y-55822436D02*
X127148000Y-57026564D01*
X125328000Y-55822436D02*
X125328000Y-57026564D01*
%TO.C,R17*%
X127868000Y-55822436D02*
X127868000Y-57026564D01*
X129688000Y-55822436D02*
X129688000Y-57026564D01*
%TO.C,R18*%
X122068000Y-64385436D02*
X122068000Y-65589564D01*
X120248000Y-64385436D02*
X120248000Y-65589564D01*
%TO.C,R19*%
X122788000Y-64385436D02*
X122788000Y-65589564D01*
X124608000Y-64385436D02*
X124608000Y-65589564D01*
%TO.C,R20*%
X127148000Y-64385436D02*
X127148000Y-65589564D01*
X125328000Y-64385436D02*
X125328000Y-65589564D01*
%TO.C,R21*%
X127868000Y-64385436D02*
X127868000Y-65589564D01*
X129688000Y-64385436D02*
X129688000Y-65589564D01*
%TO.C,D1*%
X134128000Y-50380000D02*
X134128000Y-57680000D01*
X134128000Y-57680000D02*
X136128000Y-57680000D01*
X136128000Y-57680000D02*
X136128000Y-50380000D01*
%TO.C,D2*%
X136128000Y-68006000D02*
X136128000Y-60706000D01*
X134128000Y-68006000D02*
X136128000Y-68006000D01*
X134128000Y-60706000D02*
X134128000Y-68006000D01*
%TO.C,J1*%
D13*
X103190523Y-70781333D02*
X104097666Y-70781333D01*
X104279095Y-70841809D01*
X104400047Y-70962761D01*
X104460523Y-71144190D01*
X104460523Y-71265142D01*
X104460523Y-69511333D02*
X104460523Y-70237047D01*
X104460523Y-69874190D02*
X103190523Y-69874190D01*
X103371952Y-69995142D01*
X103492904Y-70116095D01*
X103553380Y-70237047D01*
%TD*%
M02*
